<?xml version="1.0" ?><!DOCTYPE svg  PUBLIC '-//W3C//DTD SVG 1.1//EN'  'http://www.w3.org/Graphics/SVG/1.1/DTD/svg11.dtd'><svg enable-background="new 0 0 512 512" height="512px" id="Layer_1" version="1.1" viewBox="0 0 512 512" width="512px" xml:space="preserve" xmlns="http://www.w3.org/2000/svg" xmlns:xlink="http://www.w3.org/1999/xlink"><g><path d="M512,256c0,141.391-114.61,256-256,256c-8.11,0-16.131-0.38-24.04-1.12C101.85,498.771,0,389.28,0,256    C0,114.62,114.619,0,256,0c131.239,0,239.409,98.761,254.26,226C511.409,235.841,512,245.851,512,256z" fill="#EFC849"/><g><g><g><polygon fill="#6BC8ED" points="391,106 390.97,230.36 390.97,248.431 390.93,406 170.31,406 170.31,106      "/><circle cx="231.125" cy="166.64" fill="#FFFFFF" r="9.549"/><circle cx="195.161" cy="126.908" fill="#FFFFFF" r="9.549"/><circle cx="188.272" cy="283.487" fill="#FFFFFF" r="9.549"/><circle cx="178.724" cy="357.132" fill="#FFFFFF" r="9.549"/><circle cx="321.37" cy="220.298" fill="#FFFFFF" r="9.549"/><circle cx="292.479" cy="148.966" fill="#FFFFFF" r="9.549"/><circle cx="252.146" cy="248.032" fill="#FFFFFF" r="9.549"/><circle cx="246.97" cy="324.662" fill="#FFFFFF" r="9.549"/><circle cx="361.188" cy="366.681" fill="#FFFFFF" r="9.549"/><path d="M390.97,230.36v18.07c-0.97,0.33-2,0.51-3.08,0.51c-5.271,0-9.55-4.271-9.55-9.54       c0-5.28,4.279-9.55,9.55-9.55C388.97,229.851,390,230.03,390.97,230.36z" fill="#FFFFFF"/><circle cx="312.153" cy="283.487" fill="#FFFFFF" r="9.549"/><circle cx="266.592" cy="371.121" fill="#FFFFFF" r="9.549"/><path d="M218.479,401.341c0,1.689-0.439,3.279-1.21,4.659h-16.68c-0.771-1.38-1.21-2.97-1.21-4.659       c0-5.271,4.279-9.551,9.55-9.551C214.21,391.79,218.479,396.07,218.479,401.341z" fill="#FFFFFF"/><circle cx="366.746" cy="129.957" fill="#FFFFFF" r="9.549"/></g><g><polygon opacity="0.1" points="210.032,106.003 170.307,106.003 170.307,406.003 210.021,406.003      "/><g><g><g><path d="M334.562,121.74c-0.283-1.553-0.467-3.135-0.539-4.718l-4.194,1.276l-0.516-1.875l6.511-1.979l0.013,1.285          c0.02,1.888,0.203,3.784,0.548,5.638L334.562,121.74z"/><path d="M252.657,141.762l-0.511-1.875l9.749-2.962l0.509,1.875L252.657,141.762z M268.093,137.07l-0.516-1.875l9.748-2.964          l0.515,1.876L268.093,137.07z M283.527,132.375l-0.515-1.875l9.751-2.963l0.512,1.875L283.527,132.375z M298.958,127.684          l-0.512-1.875l9.749-2.964l0.51,1.875L298.958,127.684z M314.393,122.991l-0.515-1.875l9.752-2.964l0.515,1.876          L314.393,122.991z"/><path d="M244.605,148.966c-1.21-1.429-2.507-2.797-3.85-4.064l-1.245-1.177l6.949-2.108l0.51,1.874l-3.764,1.143          c0.962,0.971,1.89,1.984,2.782,3.03L244.605,148.966z"/><path d="M219.995,232.419c-1.614,0-3.253-0.108-4.872-0.326l0.231-1.938c3.707,0.498,7.477,0.394,11.095-0.301l0.332,1.922          C224.555,232.201,222.274,232.419,219.995,232.419z M233.353,229.854l-0.656-1.829c3.476-1.376,6.721-3.319,9.649-5.759          l1.148,1.527C240.415,226.362,237.004,228.401,233.353,229.854z M248.446,218.863l-1.378-1.298          c2.434-2.879,4.514-6.161,6.178-9.756l1.666,0.858C253.169,212.423,250.995,215.854,248.446,218.863z M257.44,202.021          l-1.765-0.595c1.12-3.699,1.83-7.592,2.117-11.567l1.847,0.146C259.343,194.132,258.604,198.175,257.44,202.021z           M257.854,182.97c-0.198-3.905-0.807-7.826-1.802-11.655l1.786-0.516c1.03,3.965,1.66,8.02,1.87,12.063L257.854,182.97z           M253.947,164.782c-1.423-3.672-3.208-7.172-5.311-10.396l1.53-1.105c2.175,3.34,4.023,6.965,5.496,10.765L253.947,164.782z          "/><path d="M202.454,233.429l-1.744-0.658l2.215-6.507l0.917,0.435c1.671,0.795,3.384,1.473,5.091,2.014l-0.534,1.87          c-1.475-0.469-2.951-1.033-4.401-1.683L202.454,233.429z"/><polygon points="195.016,255.255 193.275,254.598 197.968,240.811 199.713,241.472         "/><polygon points="194.885,270.313 188.272,269.267 190.532,262.637 192.277,263.298 190.78,267.688 195.161,268.379                   "/><path d="M260.543,280.663l-10.367-1.633l0.275-1.934l10.367,1.637L260.543,280.663z M244.13,278.077l-10.368-1.638          l0.276-1.929l10.368,1.633L244.13,278.077z M227.715,275.49l-10.364-1.636l0.271-1.935l10.368,1.637L227.715,275.49z           M211.301,272.899l-10.368-1.632l0.276-1.935l10.364,1.637L211.301,272.899z"/><polygon points="267.042,283.849 266.604,281.951 267.407,281.746 266.592,281.618 266.867,279.688 277.045,281.291                   "/><path d="M201.667,300.552l-0.438-1.9l10.324-2.638l0.434,1.9L201.667,300.552z M218.011,296.374l-0.434-1.896l10.32-2.636          l0.438,1.895L218.011,296.374z M234.354,292.198l-0.434-1.896l10.319-2.637l0.438,1.896L234.354,292.198z M250.698,288.024          l-0.435-1.899l10.319-2.638l0.438,1.901L250.698,288.024z"/><polygon points="190.751,308.407 188.854,301.815 195.21,300.191 195.648,302.088 191.197,303.225 192.524,307.843                   "/><path d="M211.504,380.67l-3.277-11.409l1.772-0.565l3.278,11.409L211.504,380.67z M206.313,362.605l-3.274-11.412          l1.773-0.566l3.277,11.415L206.313,362.605z M201.124,344.538l-3.273-11.409l1.771-0.564l3.274,11.409L201.124,344.538z           M195.936,326.476l-3.277-11.414l1.776-0.566l3.277,11.415L195.936,326.476z"/><polygon points="220.745,393.439 215.155,393.439 212.921,387.086 214.957,386.287 216.667,391.146 220.745,391.146                   "/><path d="M288.132,393.439h-8.692v-2.294h8.692V393.439z M272.915,393.439h-10.867v-2.294h10.867V393.439z M255.525,393.439          h-10.868v-2.294h10.868V393.439z M238.136,393.439h-10.868v-2.294h10.868V393.439z"/><polygon points="298.017,393.439 292.479,393.439 292.479,391.146 296.317,391.146 297.485,386.24 299.595,386.797                   "/><path d="M300.252,379.418l-1.825-0.326l2.122-13.065l1.825,0.325L300.252,379.418z M303.611,358.731l-1.826-0.327          l2.122-13.065l1.826,0.325L303.611,358.731z M306.974,338.043l-1.829-0.326l2.12-13.067l1.826,0.327L306.974,338.043z"/><polygon points="310.328,317.354 310.328,317.354 310.324,317.354 310.324,317.354 308.503,317.024 310.386,305.473           312.153,317.045         "/><path d="M319.837,379.405l-2.004-13.062l1.829-0.314l2.004,13.063L319.837,379.405z M316.665,358.722l-1.999-13.062          l1.827-0.314l2.002,13.063L316.665,358.722z M313.493,338.039l-2-13.063l1.833-0.314l2,13.065L313.493,338.039z"/><polygon points="329.435,393.439 321.787,393.439 321.37,386.584 323.536,386.438 323.824,391.146 329.435,391.146                   "/><path d="M368.563,393.439h-13.042v-2.294h13.042V393.439z M348.994,393.439h-13.037v-2.294h13.037V393.439z"/><polygon points="379.431,393.439 372.913,393.439 372.913,391.146 377.257,391.146 377.257,386.563 379.431,386.563                   "/><path d="M379.431,379.69h-2.174v-11.451h2.174V379.69z M379.431,361.363h-2.174v-11.451h2.174V361.363z M379.431,343.04          h-2.174v-11.456h2.174V343.04z M379.431,324.713h-2.174v-11.455h2.174V324.713z M379.431,306.386h-2.174V294.93h2.174          V306.386z M379.431,288.059h-2.174v-11.455h2.174V288.059z M379.431,269.73h-2.174v-11.455h2.174V269.73z M379.431,251.402          h-2.174v-11.454h2.174V251.402z M379.431,233.076h-2.174v-11.455h2.174V233.076z M379.431,214.748h-2.174v-11.454h2.174          V214.748z M379.431,196.422h-2.174v-11.455h2.174V196.422z M379.431,178.094h-2.174V166.64h2.174V178.094z"/><polygon points="379.431,157.478 377.257,157.478 377.257,152.895 372.913,152.895 372.913,150.605 379.431,150.605                   "/><path d="M368.04,152.104c-3.29-0.448-6.514-1.285-9.585-2.478l0.645-1.832c2.938,1.146,6.024,1.94,9.179,2.372          L368.04,152.104z M353.193,147.132c-2.952-1.666-5.67-3.688-8.077-6.011l1.25-1.439c2.292,2.21,4.884,4.14,7.703,5.729          L353.193,147.132z M341.174,136.66c-2.102-2.792-3.776-5.829-4.973-9.036l1.72-0.716c1.132,3.026,2.714,5.897,4.701,8.539          L341.174,136.66z"/></g></g><polygon points="363.039,187.641 366.746,187.641 361.188,174.951 355.632,187.641 359.335,187.641 359.335,311.625         355.632,311.625 361.188,324.314 366.746,311.625 363.039,311.625       "/></g></g></g><g><path d="M183.771,115.851c0-2.611-0.982-5.114-2.739-6.963c-1.748-1.847-4.125-2.885-6.606-2.885h-43.913      c-5.159,0-9.346,4.411-9.346,9.848v280.309c0,5.438,4.187,9.844,9.346,9.844h43.896c5.161,0,9.343-4.406,9.343-9.844      L183.771,115.851z" fill="#2A9BC9"/><g><path d="M183.6,115.893c0-2.61-0.986-5.114-2.738-6.96c-1.747-1.845-4.125-2.884-6.604-2.884h-2.401       c0.175,0.163,0.37,0.297,0.537,0.478c1.747,1.904,2.732,4.486,2.732,7.182l-0.02,289.323c0,1.043-0.186,2.026-0.454,2.972       c4.965-0.23,8.929-4.511,8.929-9.799L183.6,115.893z" opacity="0.2"/><path d="M131.276,400.29l1.139-291.901c0.004-0.824,0.117-1.615,0.292-2.386h-2.373       c-5.148,0-9.334,4.415-9.334,9.835v280.309c0,5.446,4.186,9.856,9.334,9.856h2.503       C131.848,404.366,131.267,402.403,131.276,400.29z" fill="#FFFFFF" opacity="0.3"/><g><path d="M183.649,396.52c0,5.239-4.028,9.483-9.002,9.483h-44.18c-5.159,0-9.342-4.406-9.342-9.844        c0-5.235,4.027-9.483,8.996-9.483h44.525c4.974,0,9.002,4.248,9.002,9.483V396.52z" fill="#20789C"/><path d="M170.563,401.34c-12.43,0-24.854,0-37.279,0c-6.328,0-6.328-10.001,0-10.001        c12.425,0,24.85,0,37.279,0C176.887,391.339,176.887,401.34,170.563,401.34z" fill="#2C2C2C"/></g></g></g></g></g></svg>