<?xml version="1.0" ?><!DOCTYPE svg  PUBLIC '-//W3C//DTD SVG 1.1//EN'  'http://www.w3.org/Graphics/SVG/1.1/DTD/svg11.dtd'><svg enable-background="new 0 0 512 512" height="512px" id="Layer_1" version="1.1" viewBox="0 0 512 512" width="512px" xml:space="preserve" xmlns="http://www.w3.org/2000/svg" xmlns:xlink="http://www.w3.org/1999/xlink"><g><circle cx="256" cy="256" fill="#231F20" r="256"/><g><g><g><g><g><polygon fill="#147336" points="316.054,149.579 316.068,131.406 275.98,102.921 275.98,103.002 315.842,149.579        "/><polygon fill="#148C3E" points="315.842,149.579 275.98,103.002 301.105,149.583        "/></g><g><polygon fill="#148C3E" points="330.82,151.767 341.795,137.284 390.951,138.842 390.901,138.911 330.986,151.896        "/><polygon fill="#147336" points="330.986,151.896 390.901,138.911 342.72,160.807        "/></g><polygon fill="#167C3A" points="308.471,140.07 342.241,84.221 335.792,149.166       "/><g><polygon fill="#56AF1A" points="321.095,146.878 326.853,129.643 297.821,89.946 297.797,90.027 320.892,146.814        "/><polygon fill="#68C33C" points="320.892,146.814 297.797,90.027 306.913,142.157        "/></g><g><polygon fill="#69AE30" points="321.185,146.795 326.906,129.549 373.94,115.176 373.915,115.258 321.384,146.862        "/><polygon fill="#59942A" points="321.384,146.862 373.915,115.258 335.366,151.518        "/></g></g><g><path d="M340.967,248.931c-1.629,3.618-3.363,7.192-5.208,10.712c-0.015,0.039-0.037,0.078-0.056,0.113        c-0.758,1.45-1.533,2.89-2.328,4.32c-0.053,0.112-0.106,0.227-0.162,0.337c-2.426,4.981-5.937,8.674-10.078,11.512        c-1.414,0.974-2.904,1.848-4.445,2.64c-3.792,1.946-7.92,3.402-12.111,4.638c-11.112,2.904-22.366,4.329-31.289,0.943        c-9.166-2.638-17.32-10.524-24.476-19.51c-2.678-3.588-5.164-7.326-7.05-11.263c-0.759-1.578-1.419-3.19-1.953-4.841        c-1.56-4.765-2.094-9.823-0.978-15.271c0.164-1.184,0.336-2.363,0.521-3.543c0.073-0.479,0.148-0.958,0.23-1.438v-0.002        c0.193-1.2,0.397-2.395,0.615-3.589c0.49-2.713,1.038-5.417,1.639-8.103c1.738-7.789,3.933-15.467,6.57-22.987        c0.542-1.544,1.103-3.085,1.682-4.613c0.003-0.021,0.011-0.035,0.018-0.054c1.21-3.195,2.498-6.36,3.867-9.492v-0.002        c2.557-5.855,5.392-11.595,8.499-17.199c0.868-1.562,1.832-3.02,2.875-4.385c1.053-1.379,2.188-2.66,3.39-3.851        c5.064-5.026,11.3-8.453,17.549-10.729c1.474-0.536,2.943-1.008,4.404-1.421c0.535-0.146,1.069-0.282,1.603-0.414        c10.19-2.481,19.673-2.22,28.294,0.645c8.521,2.844,16.193,8.225,22.809,16.168c0.43,0.515,0.854,1.04,1.27,1.574        c0.887,1.161,1.749,2.378,2.582,3.639c3.506,5.334,6.374,11.512,7.544,18.239c0.284,1.618,0.469,3.265,0.538,4.941        c0.089,2.1-0.003,4.237-0.295,6.416c-0.682,4.933-1.538,9.833-2.578,14.691c-0.796,3.755-1.703,7.479-2.713,11.175        c-0.293,1.073-0.596,2.149-0.909,3.219c-0.149,0.514-0.3,1.028-0.457,1.544C347.806,232.296,344.661,240.731,340.967,248.931z        " fill="#E9B522"/><g><path d="M351.744,218.928c-0.488-0.148-0.977-0.279-1.468-0.391c2.017-7.563-2.221-15.522-9.781-18.04         c-0.59-0.197-1.19-0.356-1.789-0.476c-6.241-1.256-12.734,1.585-15.951,7.185c-0.588,1.021-1.81,1.489-2.929,1.116         c-1.116-0.372-1.817-1.479-1.673-2.65c0.856-7.025-3.421-13.757-10.179-16.005c-6.882-2.293-14.398,0.632-17.874,6.952         c-0.575,1.045-1.815,1.531-2.951,1.153c-0.567-0.189-1.026-0.565-1.321-1.045c-0.297-0.478-0.432-1.056-0.349-1.646         c1.012-7.145-3.257-13.99-10.137-16.281c-7.855-2.615-16.358,1.62-18.961,9.436c-0.278,0.831-0.954,1.419-1.743,1.614         c-0.44,0.114-0.924,0.107-1.388-0.048c-0.479-0.158-0.872-0.447-1.161-0.816c-0.021-0.022-0.039-0.05-0.058-0.075         c0.025,0.005,0.048,0.013,0.075,0.021c1.21-3.195,2.498-6.36,3.867-9.492v-0.002c4.98-5.343,12.729-7.717,20.149-5.575         c0.258,0.074,0.52,0.155,0.783,0.241c1.229,0.411,2.397,0.932,3.494,1.549c5.021,2.818,8.536,7.647,9.732,13.162         c5.01-4.349,12.022-6.011,18.676-4.07c0.245,0.07,0.487,0.144,0.729,0.225c1.163,0.39,2.264,0.874,3.307,1.445         c5.064,2.787,8.651,7.635,9.894,13.173c4.621-3.955,10.925-5.656,17.038-4.399c0.498,0.104,0.992,0.225,1.483,0.367         c0.102,0.027,0.199,0.055,0.297,0.086c0.168,0.05,0.336,0.104,0.504,0.161c1.315,0.437,2.554,1,3.712,1.668         c0.048,0.029,0.096,0.057,0.147,0.088c3.997,2.359,6.965,6.002,8.537,10.194c-0.118,0.559-0.239,1.115-0.363,1.67         c-0.108,0.503-0.225,1.007-0.341,1.51c-0.116,0.513-0.236,1.028-0.359,1.543c-0.013,0.053-0.023,0.102-0.039,0.15         c-0.101,0.434-0.206,0.868-0.314,1.302c-0.039,0.153-0.076,0.312-0.116,0.466c-0.078,0.319-0.157,0.637-0.24,0.957         c-0.04,0.175-0.086,0.345-0.129,0.518c-0.102,0.388-0.2,0.776-0.304,1.167C352.087,217.667,351.915,218.3,351.744,218.928z" fill="#F6F937"/><path d="M340.967,248.931c-1.629,3.618-3.363,7.188-5.208,10.712c-0.063-0.387-0.037-0.792,0.096-1.19         c2.601-7.814-1.666-16.305-9.52-18.92c-0.55-0.183-1.106-0.333-1.665-0.451c-6.277-1.314-12.835,1.524-16.075,7.162         c-0.107,0.188-0.236,0.354-0.38,0.505c-0.65,0.66-1.633,0.914-2.548,0.608c-0.899-0.297-1.523-1.07-1.662-1.967         c-0.039-0.223-0.044-0.447-0.013-0.678c0.86-7.028-3.421-13.758-10.176-16.008c-6.885-2.293-14.402,0.63-17.873,6.952         c-0.06,0.104-0.122,0.201-0.191,0.291c-0.631,0.841-1.742,1.202-2.76,0.861c-0.567-0.187-1.026-0.566-1.323-1.045         c-0.229-0.367-0.363-0.793-0.367-1.239c-0.005-0.136,0.002-0.272,0.021-0.409c1.007-7.142-3.257-13.987-10.141-16.278         c-7.087-2.359-14.708,0.859-18.035,7.255c-0.363,0.692-0.673,1.421-0.929,2.182c-0.131,0.395-0.353,0.737-0.634,1.005         c0.193-1.2,0.397-2.395,0.615-3.589c0.49-2.713,1.038-5.417,1.639-8.103c5.118-4.15,12.194-5.684,18.908-3.448         c6.866,2.287,11.774,7.994,13.227,14.716c5.194-4.51,12.539-6.136,19.408-3.847c6.792,2.26,11.7,7.937,13.193,14.614         c4.728-4.042,11.214-5.734,17.452-4.312c0.259,0.06,0.519,0.126,0.772,0.195c0.371,0.098,0.733,0.207,1.101,0.33         c0.972,0.323,1.902,0.714,2.785,1.165C335.923,238.67,339.591,243.466,340.967,248.931z" fill="#F6F937"/><path d="M323.135,275.925c-1.414,0.974-2.904,1.848-4.445,2.64c-1.404-1.176-3.047-2.108-4.889-2.723         c-6.755-2.25-14.216,0.573-17.736,6.711c-0.588,1.018-1.813,1.487-2.929,1.113c-1.12-0.37-1.82-1.479-1.677-2.646         c0.856-7.026-3.421-13.755-10.178-16.006c-6.883-2.293-14.398,0.631-17.875,6.949c-0.575,1.047-1.815,1.533-2.951,1.155         c-0.567-0.189-1.026-0.565-1.321-1.045s-0.43-1.059-0.347-1.648c1.011-7.14-3.259-13.987-10.139-16.278         c-1.62-0.538-3.267-0.785-4.885-0.773c-0.759-1.578-1.419-3.19-1.953-4.841c2.748-0.289,5.606-0.015,8.4,0.916         c6.87,2.288,11.772,7.99,13.229,14.714c5.194-4.512,12.539-6.134,19.406-3.845c6.792,2.26,11.7,7.937,13.199,14.614         c4.863-4.163,11.597-5.832,18.007-4.175c0.039,0.012,0.079,0.021,0.124,0.037c0.397,0.104,0.796,0.221,1.19,0.352         c0.98,0.327,1.919,0.721,2.811,1.182c0.164,0.081,0.332,0.168,0.49,0.257C320.335,273.495,321.83,274.628,323.135,275.925z" fill="#F6F937"/><path d="M319.932,263.518c-0.513-7.151-4.906-13.71-11.717-16.77c-0.616-0.276-1.25-0.523-1.9-0.74         c-0.767-0.255-1.535-0.461-2.31-0.618c-6.104-1.247-12.4,0.456-17.014,4.403c-1.348-6.018-5.469-11.225-11.239-13.846         c-0.631-0.289-1.287-0.545-1.958-0.769c-0.825-0.274-1.66-0.493-2.492-0.654c-6.109-1.199-12.345,0.535-16.912,4.499         c-1.311-6.057-5.421-11.281-11.243-13.932c-0.313-0.144-0.629-0.274-0.947-0.402c-0.218,1.194-0.422,2.389-0.615,3.589v0.002         c-0.082,0.479-0.157,0.958-0.23,1.438c5.837,2.791,9.3,9.056,8.384,15.569c-0.085,0.592,0.048,1.172,0.347,1.649         c0.295,0.479,0.756,0.856,1.321,1.047c1.132,0.376,2.376-0.11,2.951-1.157c3.473-6.318,10.992-9.242,17.873-6.949         c6.759,2.249,11.036,8.979,10.178,16.002c-0.144,1.169,0.559,2.278,1.674,2.65c1.118,0.373,2.344-0.094,2.931-1.116         c3.523-6.136,10.984-8.958,17.739-6.709c7.853,2.613,12.123,11.103,9.521,18.921c-0.104,0.309-0.143,0.62-0.122,0.93         c-0.033,0.066-0.068,0.133-0.098,0.202c-0.349,0.723-0.652,1.477-0.908,2.258c-0.436,1.296,0.267,2.696,1.563,3.128         c1.298,0.432,2.7-0.268,3.134-1.563c0.23-0.695,0.507-1.36,0.827-1.996c2.733-5.439,8.541-8.639,14.546-8.171         c0.056-0.11,0.109-0.225,0.162-0.337c0.793-1.433,1.568-2.87,2.326-4.32C330.028,258.696,324.316,260.174,319.932,263.518z" fill="#F6F937"/><path d="M356.792,181.705c-4.273,0.829-8.2,3.045-11.108,6.311c-1.705-6.209-6.388-11.493-12.959-13.68         c-6.794-2.263-14.124-0.661-19.325,3.782c-1.495-6.676-6.403-12.353-13.193-14.612c-6.869-2.287-14.214-0.665-19.41,3.841         c-1.216-5.632-4.863-10.554-10.058-13.342c-1.202,1.19-2.337,2.472-3.39,3.851c6.086,2.69,9.737,9.094,8.796,15.759         c-0.014,0.082-0.021,0.165-0.021,0.25c-0.022,0.503,0.112,0.99,0.366,1.399c0.297,0.479,0.76,0.854,1.324,1.045         c0.934,0.312,1.94,0.037,2.587-0.654c0.143-0.149,0.264-0.319,0.363-0.502c3.475-6.319,10.991-9.243,17.877-6.95         c6.755,2.251,11.033,8.979,10.176,16.002c-0.022,0.185-0.022,0.367-0.008,0.542c0.093,0.959,0.739,1.797,1.684,2.11         c0.823,0.274,1.708,0.091,2.352-0.44c0.229-0.183,0.422-0.409,0.575-0.678c3.523-6.136,10.983-8.956,17.74-6.706         c7.056,2.349,11.217,9.438,10.1,16.524c-0.123,0.798-0.318,1.598-0.58,2.394c-0.434,1.296,0.271,2.698,1.564,3.13         c1.298,0.432,2.698-0.269,3.132-1.566c0.216-0.65,0.396-1.302,0.544-1.954c0.023-0.112,0.044-0.217,0.064-0.326         c0,0,0.004,0.002,0-0.002c0.169-0.216,0.306-0.462,0.396-0.737c1.716-5.147,5.988-8.74,10.949-9.848         C357.261,184.969,357.076,183.323,356.792,181.705z" fill="#F6F937"/><path d="M350.835,222.147c0.313-1.069,0.616-2.146,0.909-3.219c-0.488-0.148-0.977-0.279-1.468-0.391         c-7.177-1.651-14.523,0.833-19.255,6.066c-0.007,0.009-0.015,0.015-0.021,0.023c-1.688-6.244-6.383-11.567-12.983-13.767         c-6.79-2.26-14.12-0.661-19.321,3.788c-1.497-6.678-6.405-12.353-13.197-14.612c-6.869-2.289-14.214-0.667-19.408,3.843         c-1.323-6.127-5.519-11.409-11.451-14.028c-0.573-0.25-1.165-0.48-1.773-0.686c-0.252-0.083-0.505-0.16-0.758-0.232         c-0.027-0.009-0.05-0.017-0.075-0.021c0.019,0.025,0.037,0.053,0.058,0.075c-0.579,1.528-1.14,3.069-1.682,4.613         c0.301,0.076,0.596,0.166,0.895,0.262c6.88,2.293,11.144,9.141,10.139,16.28c-0.085,0.592,0.048,1.171,0.347,1.649         c0.295,0.479,0.754,0.859,1.321,1.044c1.132,0.38,2.376-0.107,2.951-1.154c3.473-6.321,10.99-9.241,17.873-6.952         c6.755,2.251,11.036,8.983,10.176,16.008c-0.143,1.167,0.561,2.276,1.675,2.648c1.117,0.372,2.343-0.096,2.928-1.115         c3.527-6.136,10.988-8.959,17.739-6.711c7.799,2.598,12.063,10.981,9.575,18.752c-0.015,0.056-0.034,0.114-0.051,0.17         c-0.436,1.298,0.267,2.696,1.563,3.13c1.298,0.431,2.698-0.27,3.13-1.566l0.017-0.043c0.232-0.7,0.424-1.404,0.569-2.11         v-0.004c0.156-0.206,0.28-0.438,0.368-0.696c2.581-7.751,10.962-11.977,18.756-9.5         C350.535,223.175,350.686,222.661,350.835,222.147z" fill="#F6F937"/><path d="M346.666,159.827c0.887,1.161,1.749,2.378,2.582,3.639c-6.235-1.241-12.716,1.596-15.923,7.188         c-0.588,1.023-1.813,1.489-2.932,1.119c-1.117-0.374-1.817-1.48-1.674-2.652c0.856-7.022-3.421-13.753-10.176-16.004         c-6.885-2.291-14.4,0.634-17.877,6.952c-0.575,1.045-1.815,1.532-2.949,1.152c-0.567-0.187-1.026-0.564-1.323-1.043         c-0.295-0.478-0.43-1.059-0.347-1.648c0.887-6.275-2.302-12.323-7.761-15.254c1.474-0.536,2.943-1.008,4.404-1.421         c0.535-0.146,1.069-0.282,1.603-0.414c3.238,2.819,5.498,6.624,6.406,10.822c5.194-4.506,12.539-6.128,19.404-3.843         c6.792,2.262,11.704,7.938,13.201,14.614c3.374-2.885,7.646-4.573,12.091-4.781         C345.826,158.767,346.25,159.292,346.666,159.827z" fill="#F6F937"/></g><path d="M350.378,223.691c0.157-0.516,0.308-1.03,0.457-1.544c0.313-1.069,0.616-2.146,0.909-3.219        c0.171-0.628,0.343-1.261,0.507-1.893c0.104-0.391,0.202-0.779,0.304-1.167c0.043-0.173,0.089-0.343,0.129-0.518        c0.083-0.32,0.162-0.638,0.24-0.957c0.04-0.154,0.077-0.313,0.116-0.466c0.108-0.434,0.214-0.868,0.314-1.302        c0.016-0.049,0.026-0.098,0.039-0.15c0.123-0.515,0.243-1.03,0.359-1.543c0.116-0.503,0.232-1.007,0.341-1.51        c0.124-0.555,0.245-1.111,0.363-1.67c1.04-4.858,1.896-9.759,2.578-14.691c1.74-12.861-3.708-24.501-10.369-33.235        c-1.222-1.564-2.484-3.03-3.784-4.409c0.492,2.43,0.734,4.938,0.671,7.513c-0.302,10.89-1.568,21.68-3.776,32.259        c-0.332,1.62-0.691,3.228-1.07,4.833c-1.979,8.353-4.544,16.561-7.685,24.582c-1.2,3.064-2.484,6.099-3.855,9.104        c-0.12,0.266-0.243,0.533-0.367,0.798c-0.189,0.413-0.382,0.826-0.575,1.241c-0.447,1.174-0.968,2.283-1.554,3.334        c-5.12,9.245-15.119,14.01-25.673,17.55c-11.91,3.604-24.167,5.734-34.44,2.891c-8.092-1.615-15.906-6.426-23.205-12.502        c1.749,6.342,5.38,12.147,9.462,17.616c7.155,8.985,15.31,16.872,24.476,19.51c8.923,3.386,20.177,1.961,31.289-0.943        c10.893-3.207,21.345-7.926,26.635-18.789c0.056-0.11,0.109-0.225,0.162-0.337c0.793-1.433,1.568-2.87,2.326-4.32h0.002        c0.019-0.035,0.039-0.076,0.056-0.113c1.845-3.523,3.579-7.094,5.208-10.712C344.661,240.731,347.806,232.296,350.378,223.691        z" opacity="0.1"/></g></g><g><path d="M298.529,328.084c14.866-47.315,29.731-94.63,44.598-141.949c10.593-33.714,61.17-17.823,50.578,15.896       c-14.867,47.315-29.733,94.63-44.599,141.943c-4.682,15.89-20.446,21.351-33.189,17.196       C303.089,357.291,293.281,343.797,298.529,328.084z" fill="#8F2100"/><path d="M331.418,347.968c-1.753,5.859-4.379,10.705-7.533,14.537       c10.687,0.191,21.483-5.847,25.222-18.531c14.865-47.313,29.731-94.628,44.599-141.943c3.815-12.146-0.305-21.976-7.633-28.008       C367.853,232.003,349.638,289.985,331.418,347.968z" fill="#FFFFFF" opacity="0.2"/><path d="M303.721,371.905c0.984-0.509,1.329-0.66,1.998-0.442c0.671,0.223,0.857,0.549,1.344,1.544       c0.581,1.187,1.458,2.982,3.931,3.799c2.468,0.813,4.241-0.109,5.416-0.717c0.986-0.513,1.329-0.664,1.998-0.441       c0.671,0.22,0.857,0.548,1.343,1.541c0.553,1.135,1.375,2.816,3.589,3.677c0.088,0.034,0.186,0.031,0.271-0.009       c0.085-0.04,0.15-0.114,0.18-0.203l0.11-0.333c0.766-2.319,1.253-4.72,1.453-7.153l0.94-11.48l-17.932-5.913l-6.762,9.873       c-1.277,1.865-2.285,3.901-2.993,6.047l-0.002,0.007c-0.083,0.25-0.051,0.522,0.085,0.747c0.136,0.224,0.364,0.379,0.624,0.42       C301.265,373.179,302.715,372.428,303.721,371.905z" fill="#8F2100"/><ellipse cx="369.732" cy="189.896" fill="#8F0000" rx="20.622" ry="24.72" transform="matrix(-0.2997 0.954 -0.954 -0.2997 661.7206 -105.9163)"/><path d="M318.86,361.951c-11.426-5.056-18.953-19.786-13.055-37.639       c16.019-50.989,32.039-101.974,48.056-152.962c-4.681,3.016-8.556,7.85-10.734,14.785       c-14.866,47.319-29.731,94.634-44.598,141.949c-5.248,15.713,4.56,29.206,17.388,33.086       C316.883,361.486,317.867,361.746,318.86,361.951z" opacity="0.2"/><g><ellipse cx="369.731" cy="189.896" fill="#4A0000" rx="22.118" ry="26.515" transform="matrix(-0.2997 0.954 -0.954 -0.2997 661.7228 -105.9127)"/><ellipse cx="369.732" cy="189.896" fill="#8F0000" rx="20.622" ry="24.72" transform="matrix(-0.2997 0.954 -0.954 -0.2997 661.7206 -105.9163)"/><path d="M370.129,183.124c9.764,5.784,16.741,13.632,19.337,20.82        c1.73-1.888,3.058-4.117,3.847-6.639c3.415-10.865-4.374-22.991-17.399-27.083c-10.107-3.174-20.395-0.579-26.092,5.82        C356.081,176.662,363.223,179.032,370.129,183.124z" fill="#FFFFFF" opacity="0.1"/><path d="M366.859,197.5c-7.887-4.943-13.484-11.214-15.524-16.688c-1.429,1.268-2.531,2.815-3.198,4.613        c-2.886,7.756,3.331,17.228,13.885,21.157c8.192,3.048,16.59,1.867,21.29-2.44C378.223,203.242,372.437,200.997,366.859,197.5        z" opacity="0.15"/><path d="M383.513,190.74c-1.803-0.567-2.863-2.302-2.365-3.882c0.494-1.576,2.357-2.396,4.162-1.828        c1.801,0.563,2.86,2.304,2.364,3.88C387.179,190.489,385.316,191.307,383.513,190.74z" fill="#FFFFFF"/><ellipse cx="373.675" cy="201.543" fill="#FFFFFF" rx="2.993" ry="3.581" transform="matrix(-0.2995 0.9541 -0.9541 -0.2995 677.8792 -94.6194)"/><ellipse cx="367.494" cy="179.431" fill="#FFFFFF" rx="4.062" ry="4.741" transform="matrix(-0.2999 0.954 -0.954 -0.2999 648.8824 -117.3305)"/><ellipse cx="352.718" cy="185.323" fill="#FFFFFF" rx="4.063" ry="4.74" transform="matrix(-0.2996 0.9541 -0.9541 -0.2996 635.2113 -95.6619)"/><path d="M357.83,195.447c-1.126-0.355-1.78-1.465-1.464-2.477c0.319-1.014,1.491-1.552,2.619-1.194        c1.125,0.352,1.781,1.461,1.462,2.477C360.128,195.266,358.958,195.801,357.83,195.447z" fill="#FFFFFF"/><path d="M369.684,192.669c-1.127-0.352-1.782-1.462-1.462-2.476c0.318-1.014,1.489-1.55,2.615-1.194        c1.128,0.354,1.78,1.46,1.464,2.478C371.979,192.491,370.81,193.025,369.684,192.669z" fill="#FFFFFF"/><ellipse cx="378.137" cy="175.396" fill="#FFFFFF" rx="1.925" ry="2.137" transform="matrix(-0.2994 0.9541 -0.9541 -0.2994 658.688 -132.8928)"/></g></g><path d="M287.197,219.769c-0.426,0-0.86-0.081-1.271-0.254c-1.469-0.616-2.092-2.157-1.39-3.443      c3.729-6.819,3.161-13.686-1.687-20.407c-11.017-15.279-41.259-26.37-71.919-26.37c-1.632,0-2.951-1.155-2.951-2.58      s1.319-2.58,2.951-2.58c32.546,0,64.893,12.102,76.914,28.774c5.914,8.206,6.609,16.985,2.02,25.392      C289.357,219.227,288.3,219.769,287.197,219.769z" fill="#8C1B06"/><g><g><path d="M260.064,164.704c-0.868-5.533-1.314-11.144-1.314-16.787v-20.339h1.952        c2.47,0,4.468-1.996,4.468-4.463v-1.043h-56.272v1.043c0,2.467,1.998,4.463,4.464,4.463h1.956v20.339        c0,5.81-0.478,11.59-1.396,17.281c5.015,3.187,13.311,5.271,22.702,5.271C246.492,170.469,255.15,168.168,260.064,164.704z" fill="#E6EDF1"/><path d="M273.582,203.017l-3.06-5.996c-5.185-10.143-8.697-21.063-10.458-32.317        c-4.914,3.465-13.572,5.766-23.44,5.766c-9.392,0-17.688-2.085-22.702-5.271c-1.786,11.081-5.271,21.83-10.375,31.823        l-3.063,5.996c-7.727,15.13-11.771,31.991-11.771,49.103v82.117c0,1.499,1.094,2.719,2.523,2.958h91.599        c1.427-0.239,2.52-1.459,2.52-2.958V252.12C285.354,235.008,281.311,218.147,273.582,203.017z" fill="#FFFDFF"/></g><g><path d="M282.711,335.907c0.789-0.177,1.352-0.864,1.352-1.67V252.12c0-16.846-4.021-33.62-11.631-48.515        l-3.06-5.996c-7.794-15.256-11.914-32.44-11.914-49.692v-21.628h3.244c1.668,0,3.038-1.292,3.167-2.927h-26.834v212.545        H282.711z" fill="none"/><path d="M213.361,126.289h3.248v21.628c0,17.252-4.121,34.437-11.911,49.692l-3.064,5.996        c-7.608,14.895-11.629,31.669-11.629,48.515v82.117c0,0.806,0.563,1.493,1.352,1.67h45.679V123.362h-26.837        C210.326,124.997,211.697,126.289,213.361,126.289z" fill="none"/><path d="M237.035,123.366h-26.837c0.13,1.637,1.497,2.925,3.167,2.925h3.244v21.633        c0,8.189-0.93,16.354-2.745,24.312c-0.567,2.523-1.222,5.017-1.979,7.494c-1.857,6.159-4.267,12.159-7.195,17.882l-3.06,5.994        c-7.606,14.895-11.625,31.672-11.625,48.521v82.117c0,0.8,0.561,1.487,1.352,1.666h45.679v2.573l-46.015-0.008        c-2.082-0.354-3.596-2.136-3.596-4.231v-82.117c0-17.254,4.121-34.441,11.908-49.7l3.062-5.994        c3.167-6.196,5.703-12.708,7.598-19.429c0.741-2.607,1.377-5.247,1.909-7.906c1.405-6.953,2.127-14.062,2.127-21.173v-19.05        h-0.663c-3.176,0-5.756-2.583-5.756-5.755v-2.331h29.426V123.366z" fill="#CEDDE4"/><path d="M286.645,252.125v82.117c0,2.096-1.515,3.878-3.596,4.231l-0.111,0.019l-45.902-0.011v-2.573h45.678        c0.785-0.179,1.352-0.866,1.352-1.666v-82.117c0-12.664-2.27-25.286-6.642-37.103c-1.438-3.905-3.1-7.715-4.991-11.418        l-3.063-5.994c-7.786-15.258-11.911-32.438-11.911-49.688v-21.633h3.246c1.668,0,3.037-1.288,3.167-2.925h-26.836v-2.578        h29.425v2.331c0,3.172-2.582,5.755-5.756,5.755h-0.661v19.05c0,16.843,4.018,33.611,11.622,48.508l3.063,5.994        c1.954,3.812,3.676,7.752,5.153,11.781c1.107,3.021,2.081,6.082,2.927,9.189c0.282,1.047,0.557,2.105,0.808,3.165        C285.61,234.916,286.645,243.512,286.645,252.125z" fill="#BACBD4"/></g><g><path d="M282.829,335.905l-0.206,0.015c-0.093,0.015-0.185,0.033-0.278,0.033H233.27h-41.547        c-0.094,0-0.186-0.019-0.278-0.033l-3.391-0.015l2.965,5.526c1.572,2.927,4.999,4.821,8.728,4.821h33.523h41.048        c3.734,0,7.159-1.895,8.731-4.821l2.965-5.526H282.829z M280.774,340.21c-1.128,2.104-3.664,3.462-6.457,3.462H233.27h-33.523        c-2.79,0-5.324-1.357-6.453-3.462l-0.899-1.677h40.876h48.404L280.774,340.21z" fill="#BACBD4"/></g><path d="M191.723,337.243c-0.167,0-0.326-0.025-0.486-0.048h-1.026l1.944,3.622       c1.354,2.527,4.326,4.149,7.592,4.149h74.571c3.271,0,6.241-1.622,7.594-4.149l1.946-3.622h-1.028       c-0.158,0.022-0.32,0.048-0.484,0.048H191.723z" fill="#CFDFE7"/><path d="M201.075,339.794c-0.133,0-0.262-0.012-0.386-0.019h-0.816l1.545,1.216       c1.074,0.849,3.432,1.39,6.025,1.39h59.181c2.594,0,4.949-0.541,6.023-1.39l1.545-1.216h-0.814       c-0.126,0.007-0.253,0.019-0.386,0.019H201.075z" fill="#FFFDFF"/><g opacity="0.12"><path d="M282.829,337.195c-0.158,0.022-0.32,0.048-0.484,0.048h-50.141l-1.917,3.574c-1.354,2.527-4.32,4.149-7.592,4.149        h51.622c3.271,0,6.241-1.622,7.594-4.149l1.946-3.622H282.829z"/></g><path d="M273.582,202.162l-3.06-5.982c-7.729-15.092-11.772-31.91-11.772-48.998v-20.295h1.952       c2.47,0,4.468-1.992,4.468-4.457v-1.039h-56.272v1.039c0,2.465,1.998,4.457,4.464,4.457h1.956v1.082       c0.86,0.239,1.677,0.411,2.427,0.503c18.428,2.293,22.638,10.281,24.233,14.022c6.457,15.146,4.658,36.008,4.658,64.134       l0.075,108.899c0,11.203-9.098,20.284-20.322,20.284h-2.262l58.708,0.241c1.427-0.241,2.52-1.458,2.52-2.952v-81.94       C285.354,234.083,281.311,217.255,273.582,202.162z" opacity="0.12"/><g><path d="M257.805,112.403h-41.538c-4.837,0-8.753,3.712-8.785,8.305h59.104        C266.555,116.115,262.634,112.403,257.805,112.403z" fill="#D92716"/><path d="M207.481,120.708c0,0.022-0.001,0.039-0.001,0.056v1.309h59.105v-1.309c0-0.017,0-0.033,0-0.056        H207.481z" fill="#B51612"/><rect fill="#FFFFFF" height="3.656" opacity="0.5" width="26.888" x="212.941" y="115.618"/></g></g><path d="M286.21,220.89c-2.831,1.307-5.965,1.961-9.361,1.961c-3.597,0-7.494-0.723-11.677-2.187      c-20.09-7.019-43.785-30.566-53.975-44.585c-0.694-0.953-1.323-1.865-1.891-2.727c0.741-2.607,1.377-5.249,1.909-7.908      c0.474,0.302,0.852,0.74,1.06,1.264c0.214,0.554,0.515,1.18,0.903,1.875c6.142,11.193,32.857,39.699,54.203,47.151      c6.437,2.252,11.833,2.412,16.037,0.466c1.466-0.68,3.279-0.181,4.053,1.117C288.239,218.61,287.683,220.209,286.21,220.89z" opacity="0.12"/><g><path d="M201.853,317.518c-1.937,8.445-6.917,14.688-12.146,18.825c-5.333,4.133-10.913,6.162-16.479,6.114       c-3.886-0.039-7.76-1.082-11.534-3.15c-1.637-0.896-3.254-1.981-4.843-3.259c-5.153-4.231-10.019-10.561-11.805-19.039       c-11.548-56.689-11.008-115.815,1.574-172.285c1.699-7.988,6.661-14.23,11.939-18.467c5.382-4.233,11.081-6.452,16.662-6.344       c5.585-0.006,11.239,2.313,16.544,6.641c5.199,4.33,10.047,10.665,11.606,18.679c0.617,3.022,1.197,6.049,1.747,9.083       C214.849,208.212,213.745,264.056,201.853,317.518z" fill="#D98A1C"/><path d="M205.119,154.316c-4.447,61.754-2.123,125.406-36.305,178.976c-1.213,1.898-6.042,4.188-7.121,6.016       c-1.637-0.896-3.254-1.981-4.843-3.259c-5.153-4.231-10.019-10.561-11.805-19.039c-11.548-56.689-11.008-115.815,1.574-172.285       c1.699-7.988,6.661-14.23,11.939-18.467c5.382-4.233,11.081-6.452,16.662-6.344c5.585-0.006,11.239,2.313,16.544,6.641       c5.199,4.33,10.047,10.665,11.606,18.679C203.989,148.255,204.569,151.282,205.119,154.316z" fill="#EDA73E"/><path d="M146.365,157.413c1.521-8.578,6.613-15.476,12.122-20.251c5.624-4.779,11.664-7.438,17.672-7.617       c6.007-0.297,12.178,1.874,18.054,6.196c3.399,2.557,6.696,5.863,9.236,9.879c-0.026-0.129-0.05-0.258-0.077-0.387       c-1.56-8.014-6.407-14.349-11.606-18.679c-5.305-4.327-10.959-6.648-16.544-6.641c-5.585-0.105-11.28,2.11-16.662,6.344       c-5.275,4.234-10.236,10.479-11.939,18.467c-12.582,56.47-13.122,115.596-1.574,172.285c0.611,2.908,1.589,5.566,2.816,7.974       C136.557,270.044,136.018,212.811,146.365,157.413z" fill="#F7BF68"/><g><path d="M155.131,162.024c0.959-2.112,2.222-4.044,3.591-5.824c1.491-1.932,3.141-3.688,4.91-5.275        c3.739-3.362,7.995-5.933,12.465-7.733c4.359-1.755,9.058-2.745,13.678-2.536c1.08,0.044,2.157,0.14,3.224,0.331        c0.467,0.083,0.928,0.181,1.383,0.308c0.056,0.014,0.079,0.143,0.102,0.197c0.061,0.153,0.121,0.307,0.181,0.461        c0.031,0.076,0.077,0.114,0.009,0.155c-0.181,0.104-0.361,0.21-0.544,0.316c-0.435,0.259-0.873,0.509-1.313,0.76        c-0.959,0.549-1.913,1.099-2.872,1.643c-4.248,2.403-8.539,4.696-12.83,6.996c-4.39,2.357-8.815,4.636-13.256,6.864        c-1.851,0.927-3.701,1.853-5.563,2.752c-0.789,0.383-1.579,0.763-2.37,1.137c-0.153,0.074-0.306,0.146-0.461,0.218        c-0.048,0.021-0.059-0.072-0.075-0.12C155.301,162.457,155.216,162.24,155.131,162.024z" fill="#B57415"/><path d="M194.72,142.094c-0.962,2.11-2.229,4.042-3.598,5.822c-1.491,1.928-3.141,3.687-4.908,5.271        c-3.745,3.357-8.001,5.927-12.471,7.727c-4.36,1.751-9.061,2.738-13.682,2.524c-1.08-0.048-2.156-0.144-3.224-0.335        c-0.464-0.081-0.923-0.183-1.382-0.307c-0.052-0.015-0.078-0.144-0.1-0.197c-0.06-0.152-0.12-0.308-0.181-0.462        c-0.029-0.074-0.076-0.114-0.008-0.153c0.179-0.104,0.361-0.212,0.542-0.318c0.437-0.257,0.874-0.509,1.314-0.76        c0.96-0.549,1.915-1.099,2.873-1.641c4.25-2.399,8.543-4.688,12.834-6.987c4.393-2.354,8.819-4.628,13.262-6.854        c1.83-0.918,3.662-1.828,5.503-2.717c0.795-0.387,1.591-0.771,2.391-1.15c0.158-0.073,0.321-0.15,0.481-0.223        c0.066-0.033,0.059,0.013,0.086,0.087C194.543,141.644,194.632,141.871,194.72,142.094z" fill="#FEE9AB"/></g><g><path d="M152.96,192.662c1.069-2.15,2.474-4.121,3.996-5.933c1.659-1.967,3.494-3.76,5.459-5.375        c4.164-3.424,8.899-6.043,13.874-7.873c4.853-1.79,10.081-2.795,15.228-2.577c1.2,0.046,2.399,0.147,3.591,0.341        c0.518,0.083,1.026,0.187,1.537,0.312c0.063,0.017,0.088,0.147,0.112,0.203c0.066,0.156,0.135,0.315,0.202,0.472        c0.033,0.075,0.085,0.116,0.01,0.156c-0.201,0.109-0.403,0.216-0.604,0.323c-0.485,0.262-0.974,0.52-1.464,0.777        c-1.063,0.557-2.129,1.117-3.195,1.67c-4.729,2.446-9.506,4.781-14.275,7.122c-4.89,2.399-9.813,4.722-14.755,6.989        c-2.062,0.943-4.123,1.884-6.192,2.802c-0.877,0.387-1.757,0.773-2.636,1.157c-0.172,0.073-0.343,0.146-0.515,0.221        c-0.053,0.022-0.066-0.075-0.084-0.121C153.151,193.106,153.056,192.885,152.96,192.662z" fill="#B57415"/><path d="M197.022,172.378c-1.069,2.149-2.478,4.121-4,5.93c-1.659,1.966-3.496,3.758-5.461,5.372        c-4.168,3.421-8.904,6.035-13.879,7.865c-4.85,1.786-10.084,2.786-15.229,2.563c-1.203-0.044-2.403-0.146-3.592-0.339        c-0.517-0.085-1.024-0.19-1.535-0.315c-0.063-0.017-0.089-0.146-0.112-0.201c-0.066-0.16-0.135-0.316-0.203-0.472        c-0.033-0.079-0.085-0.118-0.011-0.158c0.202-0.107,0.405-0.216,0.606-0.321c0.486-0.263,0.973-0.52,1.461-0.775        c1.065-0.557,2.131-1.117,3.2-1.668c4.729-2.446,9.503-4.777,14.28-7.118c4.89-2.393,9.813-4.713,14.756-6.975        c2.039-0.935,4.079-1.861,6.125-2.769c0.889-0.395,1.777-0.785,2.663-1.168c0.181-0.078,0.356-0.153,0.537-0.229        c0.071-0.033,0.064,0.011,0.096,0.088C196.823,171.917,196.925,172.148,197.022,172.378z" fill="#FEE9AB"/></g><g><path d="M150.498,231.627c1.151-2.108,2.67-4.04,4.314-5.816c1.79-1.926,3.772-3.683,5.896-5.266        c4.501-3.354,9.617-5.919,14.993-7.712c5.244-1.747,10.898-2.729,16.46-2.509c1.301,0.044,2.597,0.144,3.883,0.336        c0.559,0.083,1.113,0.186,1.663,0.31c0.066,0.015,0.096,0.14,0.121,0.199c0.074,0.154,0.146,0.306,0.22,0.46        c0.035,0.078,0.09,0.114,0.011,0.155c-0.218,0.104-0.435,0.21-0.654,0.315c-0.525,0.254-1.053,0.51-1.579,0.759        c-1.152,0.544-2.303,1.095-3.456,1.637c-5.109,2.395-10.271,4.682-15.429,6.973c-5.281,2.349-10.604,4.621-15.945,6.838        c-2.227,0.926-4.453,1.844-6.69,2.745c-0.951,0.381-1.898,0.757-2.85,1.133c-0.185,0.07-0.372,0.145-0.559,0.216        c-0.055,0.021-0.068-0.071-0.09-0.12C150.704,232.063,150.601,231.845,150.498,231.627z" fill="#B57415"/><path d="M198.117,211.772c-1.152,2.108-2.675,4.038-4.32,5.814c-1.79,1.927-3.775,3.68-5.898,5.261        c-4.501,3.354-9.621,5.913-14.997,7.704c-5.244,1.745-10.898,2.725-16.465,2.499c-1.298-0.042-2.598-0.144-3.882-0.335        c-0.561-0.085-1.109-0.187-1.662-0.313c-0.066-0.011-0.097-0.14-0.122-0.195c-0.072-0.155-0.144-0.31-0.218-0.463        c-0.037-0.077-0.092-0.116-0.011-0.156c0.218-0.104,0.437-0.208,0.652-0.315c0.525-0.254,1.053-0.507,1.581-0.758        c1.154-0.543,2.305-1.093,3.458-1.633c5.109-2.395,10.273-4.678,15.435-6.963c5.282-2.349,10.605-4.617,15.948-6.831        c2.203-0.914,4.407-1.821,6.619-2.709c0.958-0.384,1.917-0.767,2.877-1.143c0.191-0.074,0.387-0.149,0.581-0.226        c0.079-0.033,0.067,0.015,0.103,0.089C197.903,211.324,198.008,211.548,198.117,211.772z" fill="#FEE9AB"/></g><g><path d="M149.827,268.181c1.262-2.107,2.925-4.037,4.73-5.813c1.964-1.924,4.139-3.679,6.468-5.261        c4.933-3.351,10.549-5.909,16.448-7.698c5.755-1.742,11.958-2.719,18.064-2.494c1.427,0.045,2.852,0.146,4.262,0.339        c0.611,0.085,1.22,0.188,1.826,0.311c0.072,0.017,0.104,0.144,0.131,0.198c0.081,0.155,0.16,0.31,0.241,0.463        c0.041,0.074,0.102,0.114,0.014,0.153c-0.24,0.106-0.478,0.21-0.717,0.316c-0.577,0.255-1.154,0.507-1.734,0.76        c-1.265,0.542-2.525,1.091-3.792,1.631c-5.604,2.391-11.269,4.673-16.927,6.96c-5.795,2.343-11.634,4.609-17.495,6.825        c-2.442,0.922-4.889,1.84-7.344,2.737c-1.039,0.378-2.082,0.757-3.126,1.13c-0.202,0.073-0.405,0.144-0.607,0.214        c-0.063,0.021-0.078-0.07-0.1-0.118C150.056,268.616,149.939,268.398,149.827,268.181z" fill="#B57415"/><path d="M202.072,248.367c-1.261,2.109-2.929,4.037-4.735,5.81c-1.963,1.927-4.14,3.68-6.469,5.259        c-4.938,3.349-10.554,5.903-16.454,7.691c-5.756,1.74-11.962,2.711-18.068,2.484c-1.425-0.046-2.852-0.147-4.259-0.341        c-0.614-0.083-1.221-0.187-1.825-0.313c-0.073-0.013-0.105-0.144-0.133-0.197c-0.081-0.152-0.162-0.306-0.243-0.461        c-0.037-0.077-0.1-0.115-0.009-0.156c0.237-0.104,0.477-0.208,0.717-0.315c0.575-0.254,1.151-0.507,1.732-0.756        c1.265-0.543,2.526-1.091,3.793-1.629c5.605-2.389,11.269-4.671,16.933-6.952c5.797-2.341,11.636-4.606,17.501-6.816        c2.416-0.914,4.835-1.818,7.262-2.703c1.051-0.384,2.104-0.766,3.157-1.142c0.21-0.075,0.422-0.147,0.636-0.225        c0.087-0.029,0.076,0.015,0.114,0.089C201.838,247.917,201.956,248.142,202.072,248.367z" fill="#FEE9AB"/></g><g><path d="M159.149,307.834c0.96-2.109,2.223-4.044,3.594-5.821c1.487-1.93,3.141-3.689,4.906-5.274        c3.742-3.362,7.998-5.932,12.468-7.734c4.358-1.758,9.055-2.746,13.68-2.534c1.076,0.042,2.156,0.139,3.224,0.328        c0.464,0.083,0.923,0.183,1.382,0.308c0.056,0.015,0.078,0.144,0.098,0.199c0.062,0.155,0.122,0.308,0.183,0.461        c0.029,0.073,0.076,0.114,0.008,0.154c-0.179,0.105-0.361,0.211-0.544,0.317c-0.436,0.254-0.872,0.509-1.311,0.76        c-0.958,0.549-1.915,1.1-2.875,1.642c-4.249,2.403-8.54,4.696-12.827,6.999c-4.392,2.355-8.817,4.635-13.259,6.861        c-1.851,0.928-3.701,1.849-5.563,2.752c-0.789,0.382-1.578,0.764-2.371,1.14c-0.152,0.071-0.306,0.144-0.46,0.215        c-0.048,0.024-0.06-0.071-0.076-0.117C159.319,308.271,159.234,308.055,159.149,307.834z" fill="#B57415"/><path d="M198.738,287.908c-0.959,2.11-2.225,4.042-3.598,5.819c-1.488,1.93-3.141,3.688-4.908,5.274        c-3.744,3.356-8.002,5.924-12.471,7.723c-4.359,1.755-9.058,2.743-13.68,2.529c-1.08-0.046-2.159-0.144-3.226-0.334        c-0.465-0.083-0.924-0.185-1.379-0.308c-0.056-0.015-0.079-0.144-0.104-0.199c-0.059-0.154-0.119-0.306-0.181-0.461        c-0.027-0.077-0.075-0.114-0.007-0.154c0.181-0.107,0.361-0.212,0.542-0.317c0.437-0.256,0.875-0.511,1.315-0.759        c0.959-0.55,1.913-1.099,2.875-1.641c4.247-2.4,8.542-4.692,12.83-6.987c4.393-2.354,8.819-4.632,13.262-6.854        c1.83-0.918,3.662-1.829,5.504-2.721c0.796-0.384,1.594-0.771,2.391-1.145c0.162-0.076,0.322-0.153,0.48-0.227        c0.068-0.031,0.06,0.015,0.087,0.088C198.562,287.46,198.649,287.683,198.738,287.908z" fill="#FEE9AB"/></g></g><g><g><g><polygon fill="#BF9F46" points="141.581,237.271 128.457,231.141 128.457,380.874 141.725,392.162 141.725,237.202                 "/><polygon fill="#BF9F46" points="386.699,231.085 373.458,237.271 373.369,237.231 373.369,392.162 386.699,380.265                 "/></g><g><polygon fill="#F7D77D" points="257.518,237.271 238.192,228.244 218.869,237.271 199.545,228.244 180.224,237.271          160.9,228.244 141.725,237.202 141.725,392.162 257.821,392.162 257.821,237.129        "/><polygon fill="#E9C76A" points="373.369,237.231 354.135,228.244 334.812,237.271 315.486,228.244 296.162,237.271          276.839,228.244 257.821,237.129 257.821,392.162 373.369,392.162        "/></g></g><polygon fill="#FFFFFF" opacity="0.2" points="373.458,237.271 373.369,237.231 354.135,228.244 334.812,237.271        315.486,228.244 296.162,237.271 276.839,228.244 257.821,237.129 257.518,237.271 238.192,228.244 218.869,237.271        199.545,228.244 180.224,237.271 160.9,228.244 141.725,237.202 141.581,237.271 128.457,231.141 128.457,235.443        141.581,241.574 141.725,241.503 160.9,232.542 180.224,241.574 199.545,232.543 218.869,241.574 238.192,232.543        257.518,241.574 257.821,241.428 276.839,232.543 296.162,241.574 315.486,232.543 334.812,241.574 354.135,232.543        373.369,241.531 373.458,241.574 386.699,235.388 386.699,231.085      "/></g><path d="M370.808,270.975l-52.039-56.503c-1.587-1.722-3.895-2.588-6.219-2.337l-33.866,3.646      c-1.673,0.181-3.033,1.43-3.351,3.085l-6.418,33.457c-0.44,2.296,0.232,4.67,1.819,6.392l52.041,56.5      c1.434,1.557,3.854,1.658,5.411,0.225l42.399-39.057C372.142,274.951,372.243,272.529,370.808,270.975z" opacity="0.2"/><g><g><path d="M374.033,262.374l-52.041-56.504c-1.585-1.718-3.893-2.589-6.215-2.335l-33.866,3.644        c-1.675,0.183-3.035,1.431-3.353,3.086l-6.418,33.456c-0.44,2.299,0.232,4.669,1.819,6.393l52.039,56.501        c1.436,1.556,3.857,1.655,5.411,0.222l42.401-39.053C375.365,266.349,375.469,263.927,374.033,262.374z M286.047,219.334        c-1.147-1.242-1.066-3.182,0.178-4.326s3.181-1.067,4.327,0.177c1.143,1.244,1.065,3.18-0.179,4.326        S287.191,220.577,286.047,219.334z" fill="#2E9930"/><path d="M325.432,301.062l-3.751-4.071c-0.328-0.359-0.308-0.918,0.054-1.246        c0.355-0.33,0.912-0.308,1.246,0.05l3.75,4.073c0.328,0.357,0.307,0.914-0.053,1.244        C326.319,301.442,325.763,301.42,325.432,301.062z M317.93,292.917l-3.747-4.067c-0.332-0.359-0.308-0.92,0.05-1.246        c0.357-0.332,0.918-0.307,1.246,0.048l3.749,4.073c0.33,0.357,0.308,0.918-0.048,1.246        C318.818,293.301,318.264,293.277,317.93,292.917z M310.434,284.777l-3.751-4.074c-0.333-0.354-0.308-0.912,0.049-1.242        c0.36-0.331,0.917-0.308,1.247,0.05l3.753,4.072c0.326,0.355,0.306,0.914-0.054,1.245        C311.322,285.156,310.762,285.136,310.434,284.777z M302.933,276.633l-3.751-4.071c-0.33-0.359-0.308-0.916,0.05-1.248        c0.359-0.326,0.92-0.304,1.249,0.056l3.747,4.067c0.332,0.359,0.309,0.916-0.05,1.248        C303.82,277.017,303.262,276.991,302.933,276.633z M295.431,268.491l-3.751-4.071c-0.328-0.356-0.306-0.916,0.054-1.246        s0.918-0.308,1.246,0.05l3.747,4.071c0.333,0.361,0.308,0.916-0.05,1.248C296.319,268.871,295.765,268.848,295.431,268.491z         M287.931,260.347l-3.75-4.069c-0.33-0.361-0.305-0.916,0.051-1.246c0.358-0.332,0.918-0.31,1.248,0.05l3.749,4.068        c0.332,0.364,0.308,0.917-0.052,1.249C288.819,260.729,288.263,260.706,287.931,260.347z M280.43,252.205l-2.096-2.278        c-0.629-0.678-1.123-1.454-1.473-2.308c-0.187-0.447,0.027-0.962,0.478-1.15c0.451-0.184,0.967,0.03,1.151,0.479        c0.273,0.66,0.656,1.257,1.142,1.784l2.097,2.278c0.328,0.355,0.309,0.916-0.053,1.246        C281.317,252.588,280.761,252.564,280.43,252.205z M330.371,301.273c-0.328-0.36-0.306-0.918,0.054-1.246l4.069-3.753        c0.355-0.328,0.916-0.306,1.244,0.054c0.33,0.359,0.308,0.916-0.05,1.244l-4.069,3.752        C331.26,301.652,330.701,301.63,330.371,301.273z M276.915,242.447c-0.183-0.195-0.268-0.464-0.224-0.746l0.942-5.458        c0.079-0.479,0.54-0.798,1.016-0.719c0.482,0.085,0.805,0.538,0.722,1.021L278.43,242c-0.081,0.479-0.536,0.801-1.02,0.72        C277.211,242.683,277.038,242.585,276.915,242.447z M278.797,231.538c-0.183-0.193-0.273-0.467-0.226-0.746l0.94-5.454        c0.083-0.481,0.54-0.806,1.02-0.721c0.482,0.083,0.802,0.538,0.719,1.021l-0.938,5.452c-0.083,0.481-0.536,0.8-1.02,0.719        C279.093,231.775,278.922,231.675,278.797,231.538z M338.516,293.773c-0.33-0.359-0.308-0.92,0.05-1.248l4.075-3.749        c0.357-0.332,0.912-0.308,1.242,0.05c0.33,0.359,0.307,0.916-0.05,1.246l-4.073,3.751        C339.4,294.151,338.844,294.128,338.516,293.773z M280.673,220.628c-0.179-0.196-0.268-0.469-0.22-0.747l0.94-5.455        c0.083-0.479,0.538-0.802,1.02-0.72c0.479,0.083,0.8,0.537,0.719,1.02l-0.94,5.456c-0.085,0.476-0.538,0.8-1.02,0.715        C280.975,220.864,280.802,220.768,280.673,220.628z M346.659,286.271c-0.332-0.359-0.309-0.916,0.05-1.248l4.073-3.748        c0.355-0.328,0.914-0.307,1.244,0.051c0.329,0.359,0.308,0.918-0.052,1.246l-4.07,3.753        C347.545,286.653,346.988,286.628,346.659,286.271z M285.28,211.818c-0.131-0.141-0.214-0.317-0.229-0.52        c-0.044-0.485,0.312-0.911,0.798-0.957l5.516-0.488c0.484-0.041,0.912,0.317,0.956,0.802c0.042,0.486-0.315,0.91-0.804,0.958        l-5.513,0.487C285.723,212.124,285.457,212.011,285.28,211.818z M354.8,278.77c-0.33-0.359-0.308-0.916,0.052-1.244        l4.073-3.751c0.357-0.33,0.916-0.305,1.242,0.054c0.334,0.355,0.308,0.914-0.05,1.242l-4.073,3.752        C355.688,279.153,355.13,279.129,354.8,278.77z M296.307,210.841c-0.128-0.139-0.214-0.317-0.23-0.521        c-0.041-0.482,0.314-0.912,0.804-0.954l5.511-0.49c0.486-0.043,0.912,0.314,0.958,0.8c0.043,0.482-0.315,0.914-0.802,0.958        l-5.515,0.486C296.75,211.149,296.485,211.037,296.307,210.841z M362.943,271.27c-0.328-0.355-0.307-0.914,0.053-1.246        l4.07-3.751c0.359-0.328,0.916-0.304,1.245,0.054c0.328,0.357,0.307,0.914-0.051,1.246l-4.072,3.751        C363.831,271.652,363.276,271.631,362.943,271.27z M307.334,209.864c-0.129-0.138-0.212-0.32-0.229-0.521        c-0.045-0.484,0.314-0.91,0.798-0.953l5.515-0.49c0.486-0.042,0.912,0.317,0.958,0.8c0.043,0.485-0.316,0.915-0.802,0.959        l-5.515,0.486C307.778,210.17,307.513,210.059,307.334,209.864z M318.251,209.957c-0.245-0.266-0.311-0.668-0.131-1.005        c0.221-0.432,0.757-0.603,1.188-0.376c0.804,0.418,1.526,0.968,2.14,1.639l2.122,2.304c0.327,0.355,0.306,0.916-0.05,1.246        c-0.358,0.332-0.918,0.306-1.248-0.05l-2.122-2.306c-0.477-0.52-1.033-0.945-1.656-1.267        C318.401,210.089,318.32,210.03,318.251,209.957z M367.289,262.585l-3.766-4.089c-0.328-0.355-0.306-0.914,0.052-1.245        c0.359-0.328,0.916-0.309,1.246,0.051l3.749,4.074c0.329,0.357,0.314,0.919-0.043,1.253        C368.168,262.959,367.617,262.941,367.289,262.585z M359.772,254.425l-3.751-4.067c-0.328-0.361-0.306-0.918,0.056-1.25        c0.355-0.33,0.914-0.306,1.246,0.052l3.747,4.073c0.332,0.357,0.306,0.914-0.05,1.246        C360.659,254.807,360.103,254.785,359.772,254.425z M352.273,246.285l-3.749-4.073c-0.33-0.358-0.309-0.914,0.051-1.246        c0.358-0.328,0.915-0.307,1.246,0.052l3.751,4.069c0.328,0.359,0.305,0.92-0.054,1.248        C353.163,246.667,352.603,246.642,352.273,246.285z M344.773,238.138l-3.751-4.068c-0.33-0.361-0.308-0.916,0.054-1.246        c0.355-0.328,0.916-0.308,1.246,0.05l3.749,4.073c0.329,0.357,0.308,0.914-0.052,1.244        C345.662,238.521,345.102,238.499,344.773,238.138z M337.275,229.999l-3.751-4.069c-0.332-0.359-0.308-0.92,0.05-1.248        c0.357-0.326,0.916-0.308,1.246,0.048l3.749,4.075c0.332,0.357,0.308,0.914-0.052,1.242        C338.162,230.38,337.605,230.354,337.275,229.999z M329.773,221.856l-3.75-4.07c-0.328-0.361-0.307-0.918,0.051-1.249        c0.359-0.33,0.916-0.307,1.246,0.053l3.751,4.072c0.328,0.357,0.306,0.914-0.052,1.245        C330.66,222.237,330.104,222.213,329.773,221.856z" fill="#FFFFFF"/><g><path d="M283.789,212.507c-2.624,2.486-2.733,6.635-0.243,9.26l2.527-2.396         c-1.165-1.23-1.113-3.172,0.112-4.339c1.231-1.164,3.174-1.112,4.339,0.115l2.528-2.396         C290.563,210.127,286.416,210.015,283.789,212.507z" fill="#231F20"/><path d="M290.408,219.485c-1.228,1.165-3.168,1.113-4.335-0.114l-2.527,2.396c2.488,2.626,6.636,2.735,9.264,0.247         c2.623-2.492,2.731-6.638,0.243-9.264l-2.528,2.396C291.689,216.377,291.64,218.321,290.408,219.485z"/></g><g><path d="M286.223,215.002c1.232-1.137,3.146-1.065,4.3,0.145l1.132-1.044c-1.729-1.836-4.617-1.946-6.477-0.235         c-1.86,1.714-1.987,4.604-0.301,6.477l1.134-1.045C284.899,218.053,284.987,216.142,286.223,215.002z"/><path d="M291.688,214.138c-0.01-0.013-0.022-0.025-0.033-0.035l-1.132,1.044         c0.009,0.013,0.022,0.02,0.033,0.036c1.146,1.242,1.069,3.186-0.179,4.332s-3.187,1.07-4.335-0.176         c-0.01-0.017-0.021-0.027-0.031-0.04l-1.134,1.045c0.011,0.009,0.022,0.023,0.033,0.037c1.724,1.872,4.639,1.992,6.51,0.269         C293.293,218.925,293.412,216.009,291.688,214.138z" fill="#231F20"/></g></g><g><path d="M314.116,222.866c-2.267-2.457-6.111-2.617-8.576-0.349l-12.608,11.613        c-0.629-0.326-1.416-0.245-1.969,0.262c-0.698,0.644-1.462,3.697-1.462,3.697s3.104-0.512,3.807-1.157        c0.547-0.507,0.692-1.286,0.418-1.938l12.612-11.615c1.985-1.825,5.086-1.7,6.914,0.287l4.962,5.386l0.864-0.797        L314.116,222.866z" fill="#231F20"/><polygon fill="#F2F2F2" points="310.421,275.675 308.722,273.83 317.313,263.662 321.076,265.866       "/><path d="M285.6,248.316l1.7,1.843l8.248-5.506l3.815-6.711l-3.266,0.911c-0.216,0.061-0.415,0.171-0.58,0.323        L285.6,248.316z" fill="#F2F2F2"/><g><path d="M341.432,260.461c-1.257-1.658-3.03-5.039,0.287-8.001l-12.068-13.103l-7.527-8.173l-4.368-4.744         c-1.674-1.817-4.118-2.709-6.563-2.407c-2.449,0.299-4.599,1.77-5.776,3.938l-14.29,26.318l2.442,2.7l4.184-6.447         c0.721-1.113,1.72-2.022,2.896-2.633l3.794-1.959c0.32-0.17,0.684-0.204,1.024-0.12c1.004,3.661,4.044,8.081,7.82,12.846         c3.338,3.382,7.264,5.796,9.756,6.755c0.499,0.188,0.862,0.626,0.96,1.149c0.102,0.521-0.071,1.063-0.468,1.42         l-10.904,10.045l1.643,1.817c0,0,6.462-5.353,10.215-7.478c3.802-2.151,8.052-3.047,10.778-2.527         c0.744,0.141,1.512-0.077,2.066-0.588l0.002-0.002l4.184-6.502C341.978,262.054,341.938,261.136,341.432,260.461z" fill="#F2F2F2"/><path d="M309.43,262.272c-0.552,0.511-1.385,0.642-2.089,0.271c-0.459-0.249-0.809-0.665-0.966-1.166         c-0.152-0.502-0.102-1.044,0.146-1.508l0.143-0.268c0,0,0,0,0.003-0.002l0.915-1.729c-0.028-0.015-0.05-0.026-0.072-0.043         c-0.396-0.237-0.901-0.184-1.238,0.131l-1.729,1.589c-0.739,0.683-1.885,0.634-2.567-0.104         c-0.741-0.808-0.691-2.056,0.114-2.796l1.797-1.655c0.22-0.207,0.273-0.533,0.128-0.793l-1.84,0.553l-0.721,0.216         c-0.691,0.21-1.408-0.013-1.867-0.509c-0.179-0.197-0.32-0.437-0.401-0.709c-0.151-0.506-0.098-1.044,0.152-1.508         c0.183-0.343,0.463-0.623,0.802-0.804c0.116-0.063,0.24-0.114,0.369-0.155l2.445-0.737c-0.048-1.573,0.457-3.022,1.549-4.028         c0.293-0.277,0.619-0.502,0.964-0.687c0.096,0.024,0.193,0.062,0.285,0.102c0.411,0.201,0.588,0.629,0.795,1.04         c1.198,3.898,1.417,4.265,5.849,10.441c0.154,0.239,0.676,0.862,0.892,1.263c-0.621,0.231-1.3,0.333-2.002,0.318         l-1.479,2.794c-0.008,0.019-0.022,0.041-0.033,0.06C309.678,262.01,309.563,262.15,309.43,262.272z" fill="#231F20"/><path d="M332.494,256.086c-1.61,1.485-4.123,1.382-5.608-0.232c-0.223-0.239-0.402-0.501-0.553-0.774         c-2.634,1.734-6.21,1.352-8.412-1.039c-2.457-2.665-2.286-6.816,0.378-9.271c0.048-0.042,0.1-0.085,0.147-0.129         c-0.058-0.052-0.114-0.106-0.168-0.166c-2.453-2.663-2.285-6.812,0.382-9.264c0.947-0.873,2.08-1.413,3.26-1.627         c-0.083-0.806-0.017-1.622,0.203-2.398l7.527,8.173c-0.009,0.002-0.017,0.002-0.024,0.002         c0.205,1.986-0.495,4.038-2.08,5.496c-0.045,0.039-0.097,0.087-0.141,0.127c0.052,0.056,0.107,0.11,0.16,0.168         c1.073,1.165,1.645,2.615,1.726,4.079c1.236-0.157,2.523,0.262,3.43,1.247C334.21,252.09,334.104,254.597,332.494,256.086z" fill="#231F20"/><path d="M302.173,254.751l-0.721,0.216c-0.691,0.21-1.408-0.013-1.867-0.509         c-0.179-0.197-0.32-0.437-0.401-0.709c-0.151-0.506-0.098-1.044,0.152-1.508c0.183-0.343,0.463-0.623,0.802-0.804         c0.515,0.11,1.014,0.387,1.414,0.822C302.219,252.981,302.426,253.947,302.173,254.751z" fill="#F2F2F2"/><path d="M305.255,258.891l-0.714,0.656c-0.739,0.683-1.885,0.634-2.567-0.104         c-0.741-0.808-0.691-2.056,0.114-2.796l0.452-0.415c0.702-0.017,1.444,0.282,1.992,0.875         C305.012,257.627,305.253,258.272,305.255,258.891z" fill="#F2F2F2"/><path d="M309.43,262.272c-0.552,0.511-1.385,0.642-2.089,0.271c-0.459-0.249-0.809-0.665-0.966-1.166         c-0.152-0.502-0.102-1.044,0.146-1.508l0.143-0.268c0,0,0,0,0.003-0.002c0.817-0.173,1.75,0.114,2.407,0.829         c0.388,0.417,0.62,0.916,0.697,1.42C309.678,262.01,309.563,262.15,309.43,262.272z" fill="#F2F2F2"/></g><g><path d="M351.898,265.239c-0.809,0.747-1.782,1.219-2.842,1.433c-0.977,0.203-2.186,0.304-3.087,0.729         l-3.732,2.015l-1.383,0.741c-0.059,0.32-0.189,0.586-0.399,0.781c-0.982,0.905-3.281,0.004-5.137-2.013         c-1.858-2.017-2.566-4.379-1.586-5.282c0.205-0.188,0.465-0.291,0.762-0.334l3.188-4.96c0.472-0.825,0.689-2.086,0.959-3         c0.3-1.028,0.586-1.714,1.658-2.704c2.829-2.606,7.718-1.896,10.921,1.58c2.711,2.945,3.347,6.936,1.756,9.672         C352.691,264.387,352.33,264.841,351.898,265.239z" fill="#231F20"/><path d="M339.946,269.806c-0.063,0.232-0.649,0.273-1.305,0.095c-0.654-0.183-1.138-0.519-1.077-0.747         c0.063-0.235,0.651-0.276,1.307-0.094C339.529,269.243,340.009,269.575,339.946,269.806z" fill="#F2F2F2"/><path d="M335.182,266.566c0.239-0.046,0.324-0.626,0.201-1.294c-0.126-0.671-0.421-1.18-0.658-1.135         c-0.238,0.044-0.322,0.625-0.199,1.294C334.654,266.102,334.945,266.609,335.182,266.566z" fill="#F2F2F2"/><path d="M353.362,261.921c-1.643,1.78-1.531,4.551,0.245,6.197c1.778,1.64,4.551,1.533,6.194-0.247         c0.006-0.008,0.01-0.012,0.016-0.019l-6.435-5.95C353.375,261.913,353.373,261.917,353.362,261.921z" fill="#231F20"/><path d="M341.54,243.339c-2.311,0.676-3.646,3.096-2.979,5.413c0.662,2.318,3.075,3.66,5.396,3.012         L341.54,243.339z" fill="#231F20"/><path d="M347.149,257.613c-3.111-3.379-2.986-8.58,0.285-11.592c0.326-0.297,0.829-0.28,1.134,0.048         c0.297,0.326,0.278,0.835-0.046,1.136c-2.621,2.408-2.708,6.593-0.193,9.322c2.514,2.726,6.688,2.987,9.306,0.573         c0.326-0.301,0.835-0.28,1.134,0.048c0.3,0.322,0.279,0.831-0.047,1.132C355.454,261.292,350.262,260.993,347.149,257.613z" fill="#231F20"/><path d="M352.977,263.897c-0.007-1.264-0.424-2.47-1.284-3.407c1.408-1.591,1.683-3.692,0.565-4.905         c-1.218-1.323-3.633-1.08-5.391,0.539c-1.047,0.964-1.624,2.196-1.663,3.319c-0.731,0.318-1.438,0.769-2.069,1.354         c-2.646,2.433-3.104,6.235-1.03,8.489c0.044,0.044,0.081,0.089,0.133,0.129l3.732-2.015c0.901-0.426,2.11-0.526,3.087-0.729         c1.06-0.214,2.033-0.686,2.842-1.433C352.33,264.841,352.691,264.387,352.977,263.897z" fill="#F2F2F2"/><path d="M347.154,265.164c-0.588,0.54-1.361,0.65-1.73,0.249c-0.37-0.398-0.195-1.161,0.391-1.707         c0.588-0.538,1.364-0.65,1.734-0.247C347.92,263.857,347.742,264.62,347.154,265.164z"/><path d="M341.111,258.604c-0.588,0.536-1.362,0.646-1.733,0.247c-0.37-0.402-0.196-1.165,0.392-1.707         c0.59-0.538,1.367-0.652,1.732-0.249C341.872,257.293,341.697,258.058,341.111,258.604z" fill="#F2F2F2"/><ellipse cx="340.239" cy="258.433" rx="0.601" ry="0.916" transform="matrix(0.6781 0.735 -0.735 0.6781 299.4766 -166.8772)"/><path d="M346.722,265.239c-0.312,0.284-0.706,0.356-0.891,0.157c-0.179-0.197-0.079-0.588,0.232-0.874         c0.308-0.282,0.706-0.355,0.887-0.156C347.133,264.565,347.029,264.954,346.722,265.239z" fill="#F2F2F2"/></g></g></g><path d="M277.923,220.916c-3.596,0-7.496-0.729-11.682-2.189c-24.542-8.574-54.489-41.843-58.564-52.224      c-0.545-1.382,0.284-2.89,1.851-3.369c1.569-0.479,3.279,0.251,3.825,1.637c3.716,9.453,32.434,41.109,55.104,49.031      c6.437,2.246,11.835,2.403,16.037,0.461c1.47-0.683,3.283-0.181,4.057,1.113c0.77,1.297,0.201,2.896-1.266,3.579      C284.451,220.263,281.323,220.916,277.923,220.916z" fill="#8C1B06"/></g><g><g><path d="M208.897,415.995c-12.513,0-24.655-2.405-36.087-7.146c-11.048-4.58-20.969-11.14-29.49-19.493       c-8.526-8.36-15.223-18.096-19.902-28.939c-4.847-11.233-7.304-23.17-7.304-35.471h8.602c0,45.463,37.766,82.445,84.182,82.445       c46.419,0,84.184-36.982,84.184-82.445h8.604c0,12.301-2.461,24.237-7.309,35.471c-4.68,10.844-11.373,20.579-19.898,28.939       c-8.521,8.354-18.442,14.913-29.489,19.493C233.555,413.589,221.41,415.995,208.897,415.995z" fill="#006838"/><path d="M208.897,408.908c-11.636,0-22.923-2.227-33.553-6.616c-10.268-4.243-19.493-10.314-27.411-18.049       c-7.925-7.737-14.146-16.75-18.492-26.788c-4.501-10.396-6.784-21.438-6.784-32.82h4.067c0,44.225,36.863,80.204,82.173,80.204       c45.312,0,82.174-35.979,82.174-80.204h4.07c0,11.383-2.284,22.424-6.787,32.82c-4.348,10.038-10.568,19.051-18.49,26.788       c-7.922,7.734-17.143,13.806-27.411,18.049C231.824,406.681,220.537,408.908,208.897,408.908z" fill="#C4E892"/><path d="M292.139,324.625c0,44.149-37.268,79.939-83.241,79.939s-83.241-35.79-83.241-79.939H292.139z" fill="#D92716"/><path d="M291.446,324.625c-18.687,16.577-48.703,27.33-82.549,27.33c-33.842,0-63.859-10.753-82.545-27.33       H291.446z" fill="#D91300"/><path d="M288.51,324.622c-7.783,36.399-41.332,63.772-81.536,63.772c-39.825,0-73.116-26.86-81.311-62.744       c0.575,43.679,37.618,78.914,83.234,78.914c45.974,0,83.241-35.79,83.241-79.942H288.51z" fill="#E72A17"/></g><g><path d="M166.179,351.203c-0.559,2.448-2.698,4.052-4.79,3.576c-2.088-0.472-3.332-2.846-2.777-5.294       c0.557-2.447,5.75-7.811,5.75-7.811S166.733,348.751,166.179,351.203z"/><path d="M190.918,360.463c-0.762,2.392-3.034,3.804-5.076,3.155c-2.039-0.652-3.076-3.119-2.315-5.513       c0.766-2.391,6.397-7.292,6.397-7.292S191.683,358.071,190.918,360.463z"/><path d="M217.186,363.195c0,2.51-1.734,4.547-3.876,4.547c-2.146,0-3.88-2.037-3.88-4.547c0-2.511,3.88-8.89,3.88-8.89       S217.186,360.684,217.186,363.195z"/><path d="M240.627,358.499c0.486,2.466-0.822,4.799-2.923,5.216c-2.102,0.413-4.201-1.246-4.688-3.712       c-0.486-2.465,2.081-9.474,2.081-9.474S240.141,356.036,240.627,358.499z"/><path d="M265.261,348.538c0.916,2.341,0.04,4.87-1.956,5.651c-1.994,0.781-4.354-0.484-5.268-2.824       c-0.916-2.337,0.372-9.69,0.372-9.69S264.345,346.201,265.261,348.538z"/><path d="M177.017,370.349c-0.914,2.098-3.107,3.163-4.896,2.386c-1.788-0.783-2.497-3.117-1.579-5.213       c0.916-2.098,6.48-6.009,6.48-6.009S177.933,368.253,177.017,370.349z"/><path d="M204.07,378.983c-0.301,2.271-2.112,3.903-4.046,3.649c-1.936-0.257-3.261-2.304-2.962-4.571       c0.301-2.267,4.563-7.567,4.563-7.567S204.371,376.715,204.07,378.983z"/><path d="M230.794,377.843c0.401,2.257-0.829,4.359-2.752,4.702c-1.919,0.343-3.803-1.205-4.204-3.459       c-0.403-2.253,2.053-8.593,2.053-8.593S230.391,375.593,230.794,377.843z"/><path d="M257.383,367.79c0.826,2.134,0.021,4.435-1.799,5.141c-1.817,0.704-3.965-0.454-4.79-2.588       c-0.826-2.135,0.368-8.829,0.368-8.829S256.556,365.655,257.383,367.79z"/><path d="M185.47,383.797c-1.021,1.592-2.949,2.179-4.306,1.309s-1.634-2.864-0.61-4.457c1.02-1.593,6.065-4.063,6.065-4.063       S186.488,382.205,185.47,383.797z"/><path d="M247.035,381.69c0.712,1.751,0.076,3.666-1.417,4.271s-3.281-0.322-3.992-2.075c-0.712-1.751,0.188-7.299,0.188-7.299       S246.324,379.939,247.035,381.69z"/><path d="M216.228,387.144c0,1.89-1.307,3.423-2.918,3.423c-1.612,0-2.921-1.533-2.921-3.423c0-1.891,2.921-6.694,2.921-6.694       S216.228,385.253,216.228,387.144z"/></g></g><g><rect fill="#BD2508" height="77.07" width="56.767" x="312.021" y="340.036"/><circle cx="341.351" cy="373.041" fill="#84C3FF" r="21.053"/><g><path d="M332.98,368.602c4.14,1.72,8.661,1.416,14.845,1.323c-2.624,2.735-5.791,3.73-9.221,4.682       L332.98,368.602z" fill="#6D91A3"/><path d="M358.193,383.613c-1.045-0.317-2.14-0.166-3.107,0.343c1.278,1.707,2.3,3.664,1.911,5.588       c-0.322,1.599-1.2,3.418-2.453,4.075c0.175,0.083,0.359,0.159,0.551,0.216c2.382,0.723,5.004-0.982,5.859-3.804       C361.81,387.207,360.574,384.333,358.193,383.613z" fill="#FFFFFF"/><path d="M358.374,384.936c-0.895-0.295-1.645-0.922-2.166-1.727c1.904,0.248,3.633-0.992,4.04-3.038       c0.251-1.253-0.05-2.549-0.725-3.589c0.164,0.03,0.328,0.07,0.492,0.124c2.039,0.673,3.325,3.06,2.872,5.332       C362.433,384.311,360.416,385.611,358.374,384.936z" fill="#FFFFFF"/><g><g><path d="M333.678,368.014c-1.188-1.307-2.293-2.648-3.314-4.016c-1.168,6.187-4.176,8.758-7.984,8.327         c1.075,2.528,2.729,4.78,4.822,6.646c6.392,5.706,25.721,9.786,34.97,4.026C351.292,384.278,342.186,377.357,333.678,368.014         z" fill="#FFFFFF"/><g><path d="M332.328,376.461c-1.556-2.09-2.888-4.484-3.924-7.111c-1.51,2.308-3.605,3.25-6.025,2.976          c1.075,2.528,2.729,4.78,4.822,6.646c3.533,3.155,11.029,5.813,18.586,6.585          C340.291,383.642,335.099,380.179,332.328,376.461z" fill="#E3E5DA"/></g><g><path d="M345.787,385.557c-6.326-1.972-14.018-9.874-14.284-10.271          C331.896,376.181,337.741,383.504,345.787,385.557z" fill="#6D91A3"/><path d="M328.548,369.701c-0.048-0.118-0.1-0.234-0.144-0.351c-1.51,2.308-3.605,3.25-6.025,2.976          c0.17,0.395,0.354,0.783,0.548,1.164C324.912,373.387,327.521,371.709,328.548,369.701z" fill="#87B3C9"/></g><path d="M330.363,363.999c-2.04-2.735-3.749-5.566-5.105-8.424c-0.164-0.347-0.518-0.561-0.901-0.549         c-0.383,0.013-0.688,0.266-0.858,0.608c-3.107,6.099-3.151,11.898-1.119,16.691         C326.188,372.756,329.195,370.185,330.363,363.999z" fill="#FFFFFF"/></g><g><path d="M324.443,355.031c-0.328,4.386,2.318,10.073,5.504,13.453c7.712,8.175,15.84,14.963,27.938,14.602         c-8.198-1.397-17.387-7.579-24.208-15.071c-3.566-3.917-6.385-8.156-8.42-12.439         C325.107,355.256,324.792,355.047,324.443,355.031z" fill="#6D91A3"/></g><path d="M327.278,362.149c0.171,1.063-0.55,2.07-1.616,2.245c-1.067,0.176-2.072-0.551-2.245-1.614        c-0.174-1.067,0.549-2.07,1.614-2.245C326.099,360.36,327.102,361.083,327.278,362.149z"/></g></g><polygon opacity="0.2" points="368.605,340.036 368.605,347.447 341.354,342.618 311.837,340.036     "/><g><path d="M368.605,328.435c-18.924,0-37.846,0-56.771,0c-7.683-0.079-7.683,11.682,0,11.601       c18.925,0,37.847,0,56.771,0C376.339,340.036,376.339,328.435,368.605,328.435z" fill="#CECECE"/><path d="M311.835,331.015c18.925,0,37.847,0,56.771,0c3.289,0,5.179,2.1,5.671,4.51       c0.663-3.258-1.226-7.09-5.671-7.09c-18.924,0-37.846,0-56.771,0c-4.411-0.047-6.287,3.812-5.633,7.09       C306.685,333.094,308.564,330.98,311.835,331.015z" fill="#FFFFFF"/></g><g><path d="M368.605,416.173c-18.924,0-37.846,0-56.771,0c-3.815-0.037-5.734,2.842-5.76,5.743h68.328       C374.38,419.034,372.446,416.173,368.605,416.173z" fill="#CECECE"/><path d="M306.075,421.917c-0.028,2.938,1.893,5.898,5.76,5.861c18.925,0,37.847,0,56.771,0       c3.895,0,5.824-2.939,5.798-5.861H306.075z" fill="#999999"/></g></g></g></g></svg>