<?xml version="1.0" encoding="utf-8"?>
<!-- Generator: Adobe Illustrator 15.0.0, SVG Export Plug-In . SVG Version: 6.00 Build 0)  -->
<!DOCTYPE svg PUBLIC "-//W3C//DTD SVG 1.1//EN" "http://www.w3.org/Graphics/SVG/1.1/DTD/svg11.dtd">
<svg version="1.1" id="Layer_1" xmlns="http://www.w3.org/2000/svg" xmlns:xlink="http://www.w3.org/1999/xlink" x="0px" y="0px"
	 width="100px" height="100px" viewBox="0 0 26 26" enable-background="new 0 0 26 26" xml:space="preserve">
<g>
	<path d="M11.412,10.336h-0.025c-0.127,0.511-0.254,1.16-0.395,1.657l-0.51,1.821h1.898l-0.535-1.821
		C11.693,11.483,11.54,10.847,11.412,10.336z"/>
	<path d="M20.402,4.564H5.598c-0.571,0-1.033,0.462-1.033,1.033v14.805c0,0.57,0.462,1.033,1.033,1.033h14.805
		c0.57,0,1.033-0.463,1.033-1.033V5.597C21.436,5.027,20.973,4.564,20.402,4.564z M13.323,17.469l-0.663-2.203h-2.457l-0.612,2.203
		H7.579l2.624-8.583h2.546l2.663,8.583H13.323z M18.358,17.469h-1.937v-6.227h1.937V17.469z M17.378,10.478
		c-0.611,0-1.019-0.434-1.007-0.969c-0.012-0.561,0.396-0.979,1.021-0.979c0.623,0,1.018,0.419,1.03,0.979
		C18.422,10.044,18.015,10.478,17.378,10.478z"/>
</g>
</svg>
