<?xml version="1.0" ?><!DOCTYPE svg  PUBLIC '-//W3C//DTD SVG 1.1//EN'  'http://www.w3.org/Graphics/SVG/1.1/DTD/svg11.dtd'><svg enable-background="new 0 0 100 100" height="100px" version="1.1" viewBox="0 0 100 100" width="100px" xml:space="preserve" xmlns="http://www.w3.org/2000/svg" xmlns:xlink="http://www.w3.org/1999/xlink"><g id="Layer_2"/><g id="Layer_1"><circle cx="50" cy="50" fill="#1F5668" r="50"/><g><defs><circle cx="50" cy="50" id="SVGID_23_" r="50"/></defs><clipPath id="SVGID_2_"><use overflow="visible" xlink:href="#SVGID_23_"/></clipPath><g clip-path="url(#SVGID_2_)"><path d="M46.219,103.319c0,0-6.856-30.146,13.057-55.25c6.356-8.013,11.206-13.586,13.774-18.873     c0,0,0,30.348-11.262,45.284C50.894,88.931,46.456,98.273,46.219,103.319z" fill="#64AF66"/><path d="M73.051,29.197c0,0-6.435,24.002-13.986,33.352s-12.807,32.179-12.846,40.77     c0.237-5.047,4.675-14.389,15.57-28.838C73.051,59.545,73.051,29.197,73.051,29.197z" fill="#458C49"/><path d="M51.519,118.65c0,0-8.339-30.146,15.881-55.25c7.731-8.013,13.63-13.586,16.754-18.873     c0,0,0,30.348-13.698,45.284C57.205,104.261,51.806,113.603,51.519,118.65z" fill="#64AF66"/><path d="M84.154,44.527c0,0-7.828,24.002-17.011,33.352s-15.577,32.179-15.624,40.77     c0.288-5.047,5.686-14.389,18.937-28.838C84.154,74.875,84.154,44.527,84.154,44.527z" fill="#458C49"/><path d="M42.508,104.368c0,0,5.741-20.756-10.935-38.04c-5.323-5.517-9.384-9.354-11.535-12.994     c0,0,0,20.895,9.431,31.179C38.593,94.461,42.31,100.893,42.508,104.368z" fill="#64AF66"/><g><path d="M46.221,57.479c-0.013,0-0.025,0-0.038,0c-2.058,0-3.272,1.848-3.741,2.737      c-0.968-0.179-2.52-0.202-4.025,0.913c-2.433,1.802-1.081,4.866-1.081,4.866s-0.608,0.36-0.991-0.541      c0,0-0.541-0.406-0.676,0.18s0,1.487,1.262,1.262c0,0-0.406,0.901,0.991,1.352s2.839-0.676,2.839-0.676      s-0.225,2.253,2.028,2.298c2.253,0.045,1.892-0.946,1.892-0.946s0.562,0.553,1.194,0.743c0.508,0.153,1.014,0.09,0.924-0.563      c-0.062-0.452-1.014-0.293-1.036-0.608c-0.036-0.503,1.286-1.864,1.352-3.469c0.06-1.47-0.839-3.351-3.279-4.355      c0.388-0.67,1.192-1.751,2.349-1.751c0.007,0,0.014,0,0.02,0c1.598,0.017,2.199,0.859,2.218,0.884l1.214-0.777      C49.596,58.964,48.632,57.505,46.221,57.479z" fill="#F6F9C0"/><path d="M51.655,60.062c0.013,0,0.025,0,0.038,0c2.058,0,3.272,1.848,3.741,2.737      c0.968-0.179,2.52-0.202,4.025,0.913c2.433,1.802,1.081,4.866,1.081,4.866s0.608,0.36,0.991-0.541c0,0,0.541-0.406,0.676,0.18      c0.135,0.586,0,1.487-1.262,1.262c0,0,0.406,0.901-0.991,1.352c-1.397,0.451-2.839-0.676-2.839-0.676s0.225,2.253-2.028,2.298      s-1.892-0.946-1.892-0.946s-0.562,0.553-1.194,0.743c-0.508,0.153-1.014,0.09-0.924-0.563c0.062-0.452,1.014-0.293,1.036-0.608      c0.036-0.503-1.286-1.864-1.352-3.469c-0.06-1.47,0.839-3.351,3.279-4.355c-0.388-0.67-1.192-1.751-2.349-1.751      c-0.007,0-0.014,0-0.02,0c-1.598,0.017-2.199,0.859-2.218,0.884l-1.214-0.777C48.28,61.548,49.245,60.089,51.655,60.062z" fill="#F6F9C0"/><path d="M46.561,42.175c-0.011,0-0.023,0-0.034,0c-1.853,0-2.946,1.664-3.368,2.465      c-0.871-0.161-2.269-0.182-3.624,0.822c-2.191,1.623-0.974,4.382-0.974,4.382s-0.548,0.325-0.893-0.487      c0,0-0.487-0.365-0.609,0.162c-0.122,0.527,0,1.339,1.136,1.136c0,0-0.365,0.811,0.893,1.217s2.556-0.609,2.556-0.609      s-0.203,2.029,1.826,2.069c2.029,0.041,1.704-0.852,1.704-0.852s0.506,0.498,1.075,0.669c0.457,0.138,0.913,0.081,0.832-0.507      c-0.056-0.407-0.913-0.264-0.933-0.548c-0.032-0.452,1.158-1.678,1.217-3.124c0.054-1.323-0.755-3.017-2.952-3.921      c0.349-0.604,1.073-1.577,2.115-1.577c0.006,0,0.013,0,0.018,0c1.439,0.015,1.98,0.773,1.997,0.796l0.896-0.669      C49.403,43.543,48.732,42.199,46.561,42.175z" fill="#F6F9C0"/><path d="M51.315,45.179c0.011,0,0.023,0,0.034,0c1.853,0,2.946,1.664,3.368,2.465      c0.871-0.161,2.269-0.182,3.624,0.822c2.191,1.623,0.974,4.382,0.974,4.382s0.548,0.325,0.893-0.487      c0,0,0.487-0.365,0.609,0.162c0.122,0.527,0,1.339-1.136,1.136c0,0,0.365,0.811-0.893,1.217s-2.556-0.609-2.556-0.609      s0.203,2.029-1.826,2.069c-2.029,0.041-1.704-0.852-1.704-0.852s-0.506,0.498-1.075,0.669c-0.457,0.138-0.913,0.081-0.832-0.507      c0.056-0.407,0.913-0.264,0.933-0.548c0.032-0.452-1.158-1.678-1.217-3.124c-0.054-1.323,0.755-3.017,2.952-3.921      c-0.349-0.604-1.073-1.577-2.115-1.577c-0.006,0-0.013,0-0.018,0c-1.439,0.015-1.98,0.773-1.997,0.796l-0.828-0.721      C48.541,46.495,49.145,45.203,51.315,45.179z" fill="#F6F9C0"/><path d="M47.003,29.941c-0.01,0-0.019,0-0.029,0c-1.574,0-2.502,1.413-2.86,2.093      c-0.74-0.137-1.927-0.155-3.078,0.698c-1.861,1.378-0.827,3.721-0.827,3.721s-0.465,0.276-0.758-0.413      c0,0-0.413-0.31-0.517,0.138c-0.103,0.448,0,1.137,0.965,0.965c0,0-0.31,0.689,0.758,1.034c1.068,0.345,2.171-0.517,2.171-0.517      s-0.172,1.723,1.551,1.757c1.723,0.034,1.447-0.724,1.447-0.724s0.43,0.423,0.913,0.569c0.388,0.117,0.775,0.069,0.706-0.431      c-0.048-0.346-0.775-0.224-0.792-0.465c-0.027-0.384,0.984-1.425,1.034-2.653c0.046-1.124-0.642-2.562-2.507-3.33      c0.296-0.513,0.911-1.339,1.797-1.339c0.005,0,0.011,0,0.015,0c1.222,0.013,1.682,0.657,1.696,0.676l0.579-0.533      C49.234,31.138,48.846,29.962,47.003,29.941z" fill="#F6F9C0"/><path d="M50.964,31.541c0.01,0,0.019,0,0.029,0c1.574,0,2.502,1.413,2.86,2.093      c0.74-0.137,1.927-0.155,3.078,0.698c1.861,1.378,0.827,3.721,0.827,3.721s0.465,0.276,0.758-0.413c0,0,0.413-0.31,0.517,0.138      c0.103,0.448,0,1.137-0.965,0.965c0,0,0.31,0.689-0.758,1.034c-1.068,0.345-2.171-0.517-2.171-0.517s0.172,1.723-1.551,1.757      c-1.723,0.034-1.447-0.724-1.447-0.724s-0.43,0.423-0.913,0.569c-0.388,0.117-0.775,0.069-0.706-0.431      c0.048-0.346,0.775-0.224,0.792-0.465c0.027-0.384-0.984-1.425-1.034-2.653c-0.046-1.124,0.642-2.562,2.507-3.33      c-0.296-0.513-0.911-1.339-1.797-1.339c-0.005,0-0.011,0-0.015,0c-1.222,0.013-1.682,0.657-1.696,0.676l-0.764-0.49      C48.546,32.782,49.12,31.561,50.964,31.541z" fill="#F6F9C0"/><path d="M47.347,20.208c-0.007,0-0.013,0-0.02,0c-1.057,0-1.681,0.95-1.922,1.406      c-0.497-0.092-1.295-0.104-2.068,0.469c-1.25,0.926-0.556,2.5-0.556,2.5s-0.313,0.185-0.509-0.278c0,0-0.278-0.208-0.347,0.093      c-0.069,0.301,0,0.764,0.648,0.648c0,0-0.208,0.463,0.509,0.695s1.459-0.347,1.459-0.347s-0.116,1.158,1.042,1.181      c1.158,0.023,0.972-0.486,0.972-0.486s0.289,0.284,0.614,0.382c0.261,0.079,0.521,0.046,0.475-0.289      c-0.032-0.232-0.521-0.15-0.532-0.313c-0.018-0.258,0.661-0.958,0.695-1.783c0.031-0.755-0.431-1.722-1.685-2.238      c0.199-0.344,0.614-0.857,1.207-0.9c1.024-0.074,1.642,0.488,1.651,0.501l0.122-0.446      C49.082,20.972,48.586,20.222,47.347,20.208z" fill="#F6F9C0"/><path d="M50.656,20.952c0.007,0,0.015,0,0.022,0c1.215,0,1.931,1.091,2.208,1.615      c0.571-0.106,1.487-0.119,2.376,0.539c1.436,1.064,0.638,2.872,0.638,2.872s0.359,0.213,0.585-0.319      c0,0,0.319-0.239,0.399,0.106c0.08,0.346,0,0.878-0.745,0.745c0,0,0.239,0.532-0.585,0.798      c-0.824,0.266-1.675-0.399-1.675-0.399s0.133,1.33-1.197,1.356c-1.33,0.027-1.117-0.558-1.117-0.558s-0.332,0.326-0.705,0.439      c-0.3,0.09-0.598,0.053-0.545-0.332c0.037-0.267,0.598-0.173,0.612-0.359c0.021-0.297-0.759-1.1-0.798-2.047      c-0.035-0.867,0.495-1.977,1.935-2.57c-0.229-0.396-0.703-1.033-1.386-1.033c-0.004,0-0.008,0-0.012,0      c-0.943,0.01-1.676,0.561-1.687,0.576l-0.338-0.512C48.664,21.829,49.233,20.968,50.656,20.952z" fill="#F6F9C0"/><path d="M50.424,12.015c0.006,0,0.011,0,0.017,0c0.895,0,1.423,0.804,1.627,1.191      c0.421-0.078,1.096-0.088,1.751,0.397c1.059,0.784,0.47,2.117,0.47,2.117s0.265,0.157,0.431-0.235c0,0,0.235-0.176,0.294,0.078      s0,0.647-0.549,0.549c0,0,0.176,0.392-0.431,0.588c-0.608,0.196-1.235-0.294-1.235-0.294s0.098,0.98-0.882,1      c-0.98,0.02-0.823-0.412-0.823-0.412s-0.244,0.241-0.519,0.323c-0.221,0.067-0.441,0.039-0.402-0.245      c0.027-0.197,0.441-0.127,0.451-0.265c0.016-0.219-0.56-0.811-0.588-1.509c-0.026-0.639,0.365-1.458,1.426-1.894      c-0.169-0.292-0.081-0.88-0.974-1.052s-1.594,0.693-1.55,0.834v-0.497C48.955,12.661,49.375,12.027,50.424,12.015z" fill="#F6F9C0"/><path d="M47.677,11.551c-0.004,0-0.008,0-0.013,0c-0.69,0-1.097,0.62-1.254,0.918      c-0.325-0.06-0.845-0.068-1.35,0.306c-0.816,0.604-0.363,1.632-0.363,1.632s-0.204,0.121-0.332-0.181      c0,0-0.181-0.136-0.227,0.06c-0.045,0.196,0,0.499,0.423,0.423c0,0-0.136,0.302,0.332,0.453      c0.468,0.151,0.952-0.227,0.952-0.227s-0.076,0.756,0.68,0.771s0.635-0.317,0.635-0.317s0.188,0.185,0.4,0.249      c0.17,0.051,0.34,0.03,0.31-0.189c-0.021-0.152-0.34-0.098-0.348-0.204c-0.012-0.169,0.431-0.625,0.453-1.163      c0.02-0.493-0.281-1.124-1.1-1.46c0.13-0.225,0.063-0.678,0.751-0.811c0.688-0.132,1.229,0.534,1.195,0.643v-0.383      C48.809,12.05,48.485,11.56,47.677,11.551z" fill="#F6F9C0"/><polygon fill="#458C49" points="50.082,100.726 47.875,100.393 48.798,7.914 48.938,7.914     "/></g><g><path d="M32.668,72.655c-0.009,0.003-0.018,0.005-0.028,0.008c-1.496,0.417-2.004,2.006-2.164,2.747      c-0.74,0.066-1.872,0.363-2.74,1.478c-1.403,1.803,0.2,3.756,0.2,3.756s-0.369,0.385-0.83-0.192c0,0-0.475-0.185-0.455,0.268      s0.301,1.081,1.172,0.661c0,0-0.112,0.737,0.994,0.782c1.106,0.045,1.926-1.066,1.926-1.066s0.293,1.683,1.939,1.259      c1.646-0.424,1.184-1.071,1.184-1.071s0.52,0.288,1.018,0.299c0.4,0.008,0.755-0.14,0.557-0.596      c-0.137-0.316-0.796-0.008-0.876-0.232c-0.128-0.358,0.557-1.615,0.28-2.795c-0.254-1.08-1.288-2.265-3.265-2.501      c0.146-0.566,0.512-1.514,1.353-1.748c0.005-0.001,0.01-0.003,0.014-0.004c1.165-0.311,1.772,0.179,1.791,0.194l0.725-0.811      C35.421,73.051,34.425,72.186,32.668,72.655z" fill="#F6F9C0"/><path d="M37.14,73.432c0.009-0.003,0.018-0.005,0.028-0.008c1.496-0.417,2.752,0.681,3.273,1.232      c0.667-0.326,1.79-0.657,3.11-0.152c2.133,0.817,1.771,3.318,1.771,3.318s0.515,0.139,0.611-0.594c0,0,0.311-0.404,0.528-0.006      c0.217,0.398,0.301,1.081-0.661,1.172c0,0,0.477,0.573-0.447,1.183s-2.2,0.084-2.2,0.084s0.62,1.592-1.008,2.081      c-1.628,0.489-1.567-0.304-1.567-0.304s-0.296,0.516-0.717,0.782c-0.338,0.214-0.719,0.271-0.785-0.222      c-0.046-0.341,0.677-0.418,0.63-0.652c-0.076-0.372-1.312-1.094-1.685-2.247c-0.341-1.056-0.069-2.605,1.501-3.829      c-0.417-0.409-1.221-1.031-2.062-0.797c-0.005,0.001-0.01,0.003-0.014,0.004c-1.158,0.336-1.424,1.07-1.433,1.092l-1.04-0.319      C34.988,75.195,35.394,73.939,37.14,73.432z" fill="#F6F9C0"/><path d="M29.815,61.464c-0.008,0.002-0.017,0.005-0.025,0.007c-1.347,0.375-1.804,1.806-1.949,2.473      c-0.666,0.059-1.686,0.327-2.468,1.331c-1.264,1.623,0.18,3.382,0.18,3.382s-0.332,0.347-0.747-0.173      c0,0-0.428-0.167-0.409,0.241c0.018,0.408,0.271,0.973,1.056,0.596c0,0-0.101,0.664,0.895,0.704s1.734-0.96,1.734-0.96      s0.263,1.515,1.746,1.134c1.483-0.381,1.066-0.964,1.066-0.964s0.468,0.259,0.917,0.269c0.36,0.007,0.68-0.126,0.502-0.537      c-0.123-0.284-0.717-0.007-0.789-0.209c-0.115-0.322,0.502-1.454,0.252-2.517c-0.229-0.973-1.16-2.04-2.94-2.252      c0.131-0.509,0.461-1.363,1.218-1.574c0.005-0.001,0.009-0.003,0.013-0.004c1.049-0.28,1.596,0.161,1.613,0.174l0.516-0.668      C32.158,61.883,31.398,61.042,29.815,61.464z" fill="#F6F9C0"/><path d="M33.879,62.684c0.008-0.002,0.017-0.005,0.025-0.007c1.347-0.375,2.478,0.613,2.947,1.109      c0.601-0.294,1.612-0.592,2.8-0.137c1.921,0.736,1.595,2.987,1.595,2.987s0.464,0.125,0.55-0.535c0,0,0.28-0.364,0.475-0.005      c0.195,0.359,0.271,0.973-0.596,1.056c0,0,0.43,0.516-0.402,1.065c-0.832,0.55-1.981,0.075-1.981,0.075s0.558,1.433-0.908,1.874      c-1.466,0.44-1.411-0.274-1.411-0.274s-0.267,0.464-0.646,0.704c-0.304,0.193-0.647,0.244-0.707-0.2      c-0.042-0.307,0.61-0.377,0.567-0.587c-0.068-0.335-1.182-0.985-1.517-2.024c-0.307-0.951-0.062-2.346,1.351-3.448      c-0.376-0.368-1.099-0.929-1.857-0.718c-0.005,0.001-0.009,0.003-0.013,0.004c-1.043,0.302-1.283,0.963-1.29,0.983l-0.748-0.356      C32.129,64.203,32.306,63.141,33.879,62.684z" fill="#F6F9C0"/><path d="M27.659,52.484c-0.007,0.002-0.014,0.004-0.021,0.006c-1.144,0.319-1.532,1.534-1.655,2.1      c-0.566,0.05-1.432,0.278-2.096,1.13c-1.073,1.378,0.153,2.872,0.153,2.872s-0.282,0.295-0.635-0.147      c0,0-0.363-0.142-0.348,0.205c0.016,0.346,0.23,0.826,0.897,0.506c0,0-0.086,0.564,0.76,0.598s1.473-0.815,1.473-0.815      s0.224,1.287,1.483,0.963c1.259-0.324,0.905-0.819,0.905-0.819s0.398,0.22,0.779,0.228c0.306,0.006,0.577-0.107,0.426-0.456      c-0.105-0.241-0.609-0.006-0.67-0.178c-0.098-0.274,0.426-1.235,0.214-2.137c-0.194-0.826-0.985-1.732-2.496-1.912      c0.112-0.433,0.391-1.158,1.034-1.337c0.004-0.001,0.008-0.002,0.011-0.003c0.891-0.238,1.355,0.137,1.369,0.148l0.313-0.505      C29.523,52.902,29.003,52.125,27.659,52.484z" fill="#F6F9C0"/><path d="M30.861,52.844c0.007-0.002,0.014-0.004,0.021-0.006c1.144-0.319,2.105,0.52,2.503,0.942      c0.51-0.249,1.369-0.503,2.378-0.116c1.631,0.625,1.355,2.537,1.355,2.537s0.394,0.106,0.467-0.454c0,0,0.238-0.309,0.404-0.005      c0.166,0.305,0.23,0.826-0.506,0.897c0,0,0.365,0.438-0.342,0.905c-0.706,0.467-1.682,0.064-1.682,0.064      s0.474,1.217-0.771,1.591c-1.245,0.374-1.198-0.233-1.198-0.233s-0.227,0.394-0.548,0.598c-0.258,0.164-0.549,0.207-0.601-0.17      c-0.035-0.261,0.518-0.32,0.482-0.499c-0.058-0.285-1.004-0.837-1.288-1.719c-0.261-0.808-0.053-1.992,1.148-2.928      c-0.319-0.312-0.934-0.789-1.577-0.609c-0.004,0.001-0.008,0.002-0.011,0.003c-0.886,0.257-1.089,0.818-1.096,0.835      l-0.655-0.201C29.356,54.236,29.526,53.232,30.861,52.844z" fill="#F6F9C0"/><path d="M25.938,45.341c-0.005,0.001-0.009,0.003-0.014,0.004c-0.768,0.214-1.029,1.031-1.112,1.411      c-0.38,0.034-0.962,0.187-1.408,0.76c-0.721,0.926,0.103,1.93,0.103,1.93s-0.19,0.198-0.426-0.099c0,0-0.244-0.095-0.234,0.138      c0.01,0.233,0.155,0.555,0.602,0.34c0,0-0.058,0.379,0.511,0.402c0.568,0.023,0.99-0.548,0.99-0.548s0.15,0.865,0.996,0.647      c0.846-0.218,0.608-0.55,0.608-0.55s0.267,0.148,0.523,0.153c0.205,0.004,0.388-0.072,0.286-0.306      c-0.07-0.162-0.409-0.004-0.45-0.119c-0.066-0.184,0.286-0.83,0.144-1.436c-0.131-0.555-0.662-1.164-1.677-1.285      c0.075-0.291,0.273-0.747,0.695-0.898c0.729-0.261,1.292,0.022,1.302,0.03l-0.002-0.349      C27.353,45.544,26.841,45.1,25.938,45.341z" fill="#F6F9C0"/><path d="M28.493,45.211c0.005-0.002,0.011-0.003,0.016-0.005c0.883-0.246,1.624,0.402,1.931,0.727      c0.394-0.192,1.057-0.388,1.835-0.09c1.259,0.482,1.045,1.958,1.045,1.958s0.304,0.082,0.361-0.35c0,0,0.183-0.239,0.311-0.003      c0.128,0.235,0.178,0.638-0.39,0.692c0,0,0.282,0.338-0.264,0.698c-0.545,0.36-1.298,0.049-1.298,0.049s0.366,0.939-0.595,1.228      c-0.961,0.289-0.925-0.18-0.925-0.18s-0.175,0.304-0.423,0.462c-0.199,0.126-0.424,0.16-0.464-0.131      c-0.027-0.201,0.4-0.247,0.372-0.385c-0.045-0.22-0.774-0.646-0.994-1.326c-0.201-0.623-0.041-1.537,0.886-2.26      c-0.246-0.241-0.72-0.609-1.217-0.47c-0.003,0.001-0.006,0.002-0.008,0.002c-0.683,0.198-1.105,0.747-1.11,0.76l-0.349-0.304      C27.223,46.252,27.462,45.511,28.493,45.211z" fill="#F6F9C0"/><path d="M26.515,38.763c0.004-0.001,0.008-0.002,0.012-0.003c0.651-0.181,1.197,0.296,1.424,0.536      c0.29-0.142,0.779-0.286,1.353-0.066c0.928,0.355,0.771,1.443,0.771,1.443s0.224,0.06,0.266-0.258c0,0,0.135-0.176,0.23-0.003      s0.131,0.47-0.288,0.51c0,0,0.208,0.249-0.194,0.515c-0.402,0.266-0.957,0.036-0.957,0.036s0.27,0.692-0.439,0.905      c-0.708,0.213-0.682-0.132-0.682-0.132s-0.129,0.224-0.312,0.34c-0.147,0.093-0.313,0.118-0.342-0.097      c-0.02-0.148,0.295-0.182,0.274-0.284c-0.033-0.162-0.571-0.476-0.733-0.978c-0.148-0.459-0.03-1.133,0.653-1.666      c-0.182-0.178-0.237-0.623-0.921-0.567s-1.018,0.827-0.957,0.92l-0.101-0.361C25.578,39.53,25.755,38.984,26.515,38.763z" fill="#F6F9C0"/><path d="M24.424,38.983c-0.003,0.001-0.006,0.002-0.009,0.003c-0.502,0.14-0.672,0.673-0.726,0.921      c-0.248,0.022-0.628,0.122-0.919,0.496c-0.471,0.605,0.067,1.259,0.067,1.259s-0.124,0.129-0.278-0.064      c0,0-0.159-0.062-0.152,0.09s0.101,0.362,0.393,0.222c0,0-0.038,0.247,0.333,0.262c0.371,0.015,0.646-0.358,0.646-0.358      s0.098,0.564,0.65,0.422c0.552-0.142,0.397-0.359,0.397-0.359s0.174,0.097,0.342,0.1c0.134,0.003,0.253-0.047,0.187-0.2      c-0.046-0.106-0.267-0.003-0.294-0.078c-0.043-0.12,0.187-0.542,0.094-0.937c-0.085-0.362-0.432-0.76-1.095-0.839      c0.049-0.19-0.092-0.506,0.381-0.741c0.473-0.236,1.001,0.139,0.998,0.225l-0.078-0.279      C25.348,39.115,25.014,38.825,24.424,38.983z" fill="#F6F9C0"/><polygon fill="#458C49" points="43.553,100.865 41.912,101.181 24.503,36.112 24.605,36.084     "/></g></g></g></g></svg>