<?xml version="1.0" ?><!DOCTYPE svg  PUBLIC '-//W3C//DTD SVG 1.1//EN'  'http://www.w3.org/Graphics/SVG/1.1/DTD/svg11.dtd'><svg height="136.834px" id="Layer_1" style="enable-background:new 0 0 136.833 136.834;" version="1.1" viewBox="0 0 136.833 136.834" width="136.833px" xml:space="preserve" xmlns="http://www.w3.org/2000/svg" xmlns:xlink="http://www.w3.org/1999/xlink"><style type="text/css">
<![CDATA[
	.st0{fill:#7BC4A9;}
	.st1{fill:#AB9E88;}
	.st2{fill:#ABABAB;}
	.st3{fill:#494A4A;}
	.st4{fill:#49A2AF;}
	.st5{fill:#AD6F2D;}
	.st6{fill:#AD782B;}
	.st7{fill:#7F8193;}
	.st8{fill:#AEAEAE;}
	.st9{fill-rule:evenodd;clip-rule:evenodd;fill:#3FB7B6;}
	.st10{fill:#AF8A50;}
	.st11{fill:#E0CD6C;}
	.st12{fill:#E2E2E2;}
	.st13{fill:#E3DE3F;}
	.st14{fill:#E47830;}
	.st15{fill-rule:evenodd;clip-rule:evenodd;fill:#757676;}
	.st16{fill:#4AA0A5;}
	.st17{fill:#E5E5E5;}
	.st18{fill:#179948;}
	.st19{fill:#4B4B4B;}
	.st20{fill:#4BBD97;}
	.st21{fill-rule:evenodd;clip-rule:evenodd;fill:#DBB727;}
	.st22{fill:#E89F2E;}
	.st23{fill:#E8E85F;}
	.st24{fill:#E9494A;}
	.st25{fill:#4F5050;}
	.st26{fill:#B0B0B0;}
	.st27{fill:#B13838;}
	.st28{fill:#828383;}
	.st29{fill:#B29553;}
	.st30{fill:#835E2D;}
	.st31{fill:#B2B2B2;}
	.st32{opacity:0.15;}
	.st33{fill:#83BDBA;}
	.st34{fill:#848799;}
	.st35{fill:#B3B3B3;}
	.st36{fill:#B4DCE2;}
	.st37{fill:#1A3940;}
	.st38{fill:#B5B6B6;}
	.st39{fill:#EACA92;}
	.st40{fill:#EAE9A2;}
	.st41{fill:#EAE9A4;}
	.st42{fill:#1CA855;}
	.st43{fill:#B7E3EC;}
	.st44{fill:#1D1E1E;}
	.st45{fill:#898989;}
	.st46{fill:#B8E1D4;}
	.st47{fill:#EDC92C;}
	.st48{fill:#EE3351;}
	.st49{fill:#50A4B2;}
	.st50{fill:#EEE9CB;}
	.st51{fill:#51BB74;}
	.st52{fill:#EFDF7B;}
	.st53{fill:#56395F;}
	.st54{fill:#575757;}
	.st55{fill-rule:evenodd;clip-rule:evenodd;fill:#4B4B4B;}
	.st56{fill:#57949B;}
	.st57{fill:#8CC6C4;}
	.st58{fill:#8DD4DC;}
	.st59{fill:#8E8E8D;}
	.st60{fill:#8E9191;}
	.st61{fill:#202121;}
	.st62{fill-rule:evenodd;clip-rule:evenodd;fill:#E9C891;}
	.st63{fill:#BFBD6A;}
	.st64{fill-rule:evenodd;clip-rule:evenodd;fill:#B0B0B0;}
	.st65{fill:#F0F1B0;}
	.st66{fill:#22A85B;}
	.st67{fill:#F1D459;}
	.st68{fill-rule:evenodd;clip-rule:evenodd;fill:#B24E26;}
	.st69{fill:#F26768;}
	.st70{fill:#F2D351;}
	.st71{fill:#F2E18B;}
	.st72{fill:#F2F2B4;}
	.st73{fill:#F37C2B;}
	.st74{fill:#F3C03F;}
	.st75{fill:#F4D968;}
	.st76{fill:#F4E12A;}
	.st77{fill:#266533;}
	.st78{fill:#F5F6F6;}
	.st79{fill-rule:evenodd;clip-rule:evenodd;fill:#B6AF8F;}
	.st80{fill:#F6D928;}
	.st81{fill:#F6E655;}
	.st82{fill:#286E69;}
	.st83{fill-rule:evenodd;clip-rule:evenodd;fill:#EACA92;}
	.st84{fill-rule:evenodd;clip-rule:evenodd;fill:#B7B3B3;}
	.st85{fill:#F7A4A5;}
	.st86{fill-rule:evenodd;clip-rule:evenodd;fill:#898989;}
	.st87{fill:#F8D98C;}
	.st88{fill:#F8E597;}
	.st89{fill-rule:evenodd;clip-rule:evenodd;fill:#1EABBA;}
	.st90{fill:#F9DF71;}
	.st91{fill-rule:evenodd;clip-rule:evenodd;fill:#EDC92C;}
	.st92{fill-rule:evenodd;clip-rule:evenodd;fill:#EDE2D1;}
	.st93{clip-path:url(#SVGID_2_);}
	.st94{clip-path:url(#SVGID_4_);}
	.st95{fill:#916830;}
	.st96{fill:#C0BFBF;}
	.st97{fill:#C2C1C1;}
	.st98{fill:#94793D;}
	.st99{fill:#949392;}
	.st100{fill:#94D2BE;}
	.st101{fill:#964E9E;}
	.st102{fill:#969998;}
	.st103{fill:#C5BC99;}
	.st104{fill:#96D0D0;}
	.st105{fill:#97866A;}
	.st106{fill:#FAF29B;}
	.st107{fill:#C799C6;}
	.st108{fill:#2D6973;}
	.st109{fill:#FBF3F3;}
	.st110{fill:#2E2F2F;}
	.st111{fill:#C9E8ED;}
	.st112{opacity:0.3;}
	.st113{fill:#606060;}
	.st114{fill:#616A8A;}
	.st115{fill:#FFFFFF;}
	.st116{fill:#626464;}
	.st117{fill:#62BFCE;}
	.st118{fill:#64A4AD;}
	.st119{fill:none;}
	.st120{fill-rule:evenodd;clip-rule:evenodd;fill:#F3E8D4;}
	.st121{fill-rule:evenodd;clip-rule:evenodd;fill:#F5D9A4;}
	.st122{fill-rule:evenodd;clip-rule:evenodd;fill:#F6E0B6;}
	.st123{fill:#9C7338;}
	.st124{fill:#9C7842;}
	.st125{fill:#68B9CC;}
	.st126{fill:#9E5D26;}
	.st127{fill:#9E9E9E;}
	.st128{fill:#CDCCCC;}
	.st129{fill:#308642;}
	.st130{fill-rule:evenodd;clip-rule:evenodd;fill:#C15D28;}
	.st131{fill:#333333;}
	.st132{fill-rule:evenodd;clip-rule:evenodd;fill:#C2BFC0;}
	.st133{fill:#365A58;}
	.st134{fill:#367280;}
	.st135{fill:#6B6C6C;}
	.st136{fill:#37B268;}
	.st137{fill:#6BC177;}
	.st138{fill-rule:evenodd;clip-rule:evenodd;fill:#97A0A0;}
	.st139{fill:#6FC3CC;}
	.st140{fill-rule:evenodd;clip-rule:evenodd;fill:#FEF3E4;}
	.st141{fill-rule:evenodd;clip-rule:evenodd;fill:#616161;}
	.st142{fill:#D1D2D2;}
	.st143{fill:#D3CCA7;}
	.st144{fill:#D3D3D3;}
	.st145{fill:#D78928;}
	.st146{fill:#D78B28;}
	.st147{fill:#3D3529;}
	.st148{fill:#3D4040;}
	.st149{fill-rule:evenodd;clip-rule:evenodd;fill:#CDCCCC;}
	.st150{fill:#3F98A0;}
	.st151{fill:#70B799;}
	.st152{fill:#A076AB;}
	.st153{fill:#A0A4B7;}
	.st154{fill:#A1D6DA;}
	.st155{fill:#A48A47;}
	.st156{fill:#A4D5DF;}
	.st157{fill:#A4D6AB;}
	.st158{fill:#75B8BC;}
	.st159{fill:#786951;}
	.st160{fill:#DBBE41;}
	.st161{fill:#DBC525;}
	.st162{fill:#DCC65F;}
	.st163{fill:#DCDBDB;}
	.st164{fill:#DDDDDC;}
	.st165{fill:#DDF1F6;}
	.st166{fill:#DEDEDD;}
	.st167{fill-rule:evenodd;clip-rule:evenodd;fill:#6FC3CC;}
	.st168{fill:#41BDA4;}
	.st169{fill:#DFC0DC;}
	.st170{fill:#458691;}
]]>
</style><g><defs><circle cx="69" cy="70.692" id="SVGID_1_" r="63.054"/></defs><clipPath id="SVGID_2_"><use style="overflow:visible;" xlink:href="#SVGID_1_"/></clipPath><g class="st93"><circle class="st134" cx="69" cy="70.692" r="63.054"/></g><g class="st93"><g><g><g><path class="st11" d="M92.93,54.144c-7.438-0.811-9.065,1.691-15.877-0.717c-4.534-1.604-0.865-14.409-11.4-15.72       c-16.378-2.038-27.989,6.454-32.054,24.397c-4.783,21.115,8.64,42.149,29.979,46.984c21.341,4.834,42.518-8.359,47.3-29.477       C114.196,64.97,107.023,55.676,92.93,54.144z M59.995,58.306c-1.358,3.301-5.485,4.731-9.216,3.193       c-3.731-1.537-5.653-5.457-4.294-8.76c1.359-3.298,5.486-4.729,9.217-3.191C59.434,51.085,61.356,55.006,59.995,58.306z"/></g></g><g><g><g><path class="st52" d="M92.078,53.007c-7.439-0.809-9.066,1.691-15.877-0.717c-4.535-1.603-0.865-14.408-11.401-15.719        c-16.378-2.038-27.988,6.453-32.053,24.398c-4.784,21.113,8.639,42.148,29.979,46.983c21.34,4.834,42.518-8.361,47.301-29.477        C113.345,63.835,106.171,54.538,92.078,53.007z M59.143,57.17c-1.358,3.299-5.485,4.729-9.216,3.193        c-3.731-1.536-5.653-5.459-4.293-8.761c1.359-3.299,5.485-4.729,9.216-3.191C58.582,49.948,60.504,53.87,59.143,57.17z"/></g></g><g><g><path class="st162" d="M54.85,48.411c-3.73-1.537-7.856-0.107-9.216,3.191c-1.36,3.302,0.562,7.225,4.293,8.761        c3.73,1.536,7.857,0.105,9.216-3.193C60.504,53.87,58.582,49.948,54.85,48.411z M57.836,56.633        c-1.096,2.659-4.424,3.813-7.434,2.573c-3.007-1.238-4.558-4.4-3.461-7.062s4.424-3.815,7.432-2.577        C57.383,50.809,58.932,53.971,57.836,56.633z"/></g></g></g><g><g><g><path class="st162" d="M55.702,49.548c-3.73-1.538-7.857-0.106-9.217,3.191c-1.359,3.303,0.563,7.223,4.294,8.76        c3.73,1.538,7.857,0.107,9.216-3.193C61.356,55.006,59.434,51.085,55.702,49.548z M58.688,57.766        c-1.096,2.661-4.423,3.815-7.433,2.577c-3.008-1.239-4.558-4.402-3.461-7.063c1.097-2.662,4.423-3.816,7.431-2.576        C58.234,51.942,59.783,55.106,58.688,57.766z"/></g></g></g><g><g><path class="st71" d="M76.201,52.29c-4.535-1.603,0.573-13.123-11.401-15.719c-16.13-3.498-27.988,6.453-32.053,24.398       c-4.093,18.066,5.144,36.072,21.261,43.922C56.729,106.218,83.012,54.698,76.201,52.29z M59.143,57.17       c-1.358,3.299-5.485,4.729-9.216,3.193c-3.731-1.536-5.653-5.459-4.293-8.761c1.359-3.299,5.485-4.729,9.216-3.191       C58.582,49.948,60.504,53.87,59.143,57.17z"/></g></g></g><g><g><g><path class="st162" d="M106.358,70.937c0.921,3.094-2.382,7.074-6.259,6.008c-3.416-0.939-6.868-2.469-6.558-5.682       c0.56-5.792,2.72-5.922,6.259-6.012C103.341,65.163,105.4,67.713,106.358,70.937z"/></g></g></g><g><g><g><path class="st24" d="M105.287,70.1c1.198,2.462-1.018,6.251-4.41,5.894c-2.987-0.313-6.09-1.115-6.273-3.85       c-0.334-4.924,1.457-5.33,4.408-5.895C101.962,65.685,104.039,67.534,105.287,70.1z"/></g></g></g><g><g><g><path class="st162" d="M100.154,87.455c0.131,3.225-4.048,6.272-7.545,4.286c-3.08-1.75-6.051-4.079-4.959-7.12       c1.963-5.474,4.09-5.069,7.543-4.286S100.017,84.097,100.154,87.455z"/></g></g></g><g><g><g><path class="st22" d="M99.32,86.382c0.557,2.684-2.521,5.811-5.724,4.629c-2.82-1.038-5.63-2.576-5.136-5.273       c0.887-4.854,2.722-4.807,5.723-4.629C97.181,81.286,98.741,83.589,99.32,86.382z"/></g></g></g><g><g><g><path class="st162" d="M83.801,99.833c-1.824,2.665-6.994,2.605-8.61-1.074c-1.422-3.245-2.412-6.889,0.28-8.674       c4.848-3.215,6.309-1.619,8.609,1.074C86.381,93.851,85.697,97.056,83.801,99.833z"/></g></g></g><g><g><g><path class="st161" d="M83.773,98.472c-1.158,2.484-5.495,3.15-7.355,0.291c-1.64-2.517-2.973-5.434-0.965-7.299       c3.613-3.359,5.057-2.226,7.354-0.291C85.105,93.108,84.979,95.888,83.773,98.472z"/></g></g></g><g><g><g><path class="st162" d="M65.705,100.057c-2.346,2.222-7.388,1.074-8.189-2.863c-0.707-3.472-0.906-7.243,2.103-8.419       c5.416-2.121,6.508-0.25,8.188,2.865C69.488,94.757,68.145,97.747,65.705,100.057z"/></g></g></g><g><g><g><path class="st137" d="M65.965,98.724c-1.656,2.183-6.036,1.922-7.252-1.267c-1.072-2.806-1.76-5.937,0.598-7.339       c4.238-2.522,5.412-1.109,7.25,1.27C68.397,93.763,67.688,96.452,65.965,98.724z"/></g></g></g></g><g class="st93"><g><path class="st82" d="M73.602,58.487c6.648-5.551,7.09-2.24,9.063-0.268c1.937,1.935,5.099,2.369-0.267,9.062     c-5.341,6.665-20.664,11.87-20.664,11.87S67.054,63.957,73.602,58.487z"/></g><g><path class="st133" d="M82.665,58.22c1.937,1.935,5.099,2.369-0.267,9.062c-5.341,6.665-20.664,11.87-20.664,11.87L82.665,58.22z     "/></g><g><g><g><path class="st22" d="M79.648,55.069c-0.869,0.868,4.814,6.79,5.804,5.803l33.076-28.096l0.504-0.44       c-0.006-0.008-0.013-0.016-0.019-0.023c-0.118,0.107-0.226,0.207-0.308,0.289L85.478,60.845       c-0.497,0.498-2.166-0.734-3.603-2.199c0,0,23.987-23.988,32.115-32.115c-1.797-1.83-3.706-3.546-5.713-5.146l-0.534,0.607       L79.648,55.069z"/></g></g><g><g><path class="st146" d="M81.875,58.646c1.437,1.465,3.105,2.697,3.603,2.199l33.229-28.243c0.082-0.082,0.189-0.182,0.308-0.289       c-1.559-2.028-3.234-3.96-5.023-5.782C105.862,34.657,81.875,58.646,81.875,58.646z"/></g></g></g><g><path class="st128" d="M85.438,60.885l26.78-22.545L102.18,28.302L79.636,55.083C78.811,55.905,84.498,61.822,85.438,60.885z"/></g><g><path class="st31" d="M85.438,60.885l26.78-22.545l-5.024-5.022c0,0-25.518,25.126-25.318,25.326     C83.326,60.095,84.968,61.354,85.438,60.885z"/></g><g><path class="st96" d="M90.729,55.793l19.437-15.741l-9.375-10.094L84.463,49.479C83.834,50.104,90.015,56.506,90.729,55.793z"/></g><g><path class="st2" d="M85.438,60.885l25.111-21.14l-4.904-4.904c0,0-23.916,23.656-23.77,23.803     C83.326,60.095,84.968,61.354,85.438,60.885z"/></g></g></g></svg>