<?xml version="1.0" ?><!DOCTYPE svg  PUBLIC '-//W3C//DTD SVG 1.1//EN'  'http://www.w3.org/Graphics/SVG/1.1/DTD/svg11.dtd'><svg enable-background="new 0 0 512 512.001" height="512.001px" id="Layer_1" version="1.1" viewBox="0 0 512 512.001" width="512px" xml:space="preserve" xmlns="http://www.w3.org/2000/svg" xmlns:xlink="http://www.w3.org/1999/xlink"><g><circle cx="256" cy="256" fill="#E54C3B" r="256"/><g><path d="M148.224,80.354l-72.373,71.849l286.402,284.321l72.376-71.849L148.224,80.354z      M125.224,152.72c-6.671,0-12.08-5.37-12.08-11.993c0-6.624,5.409-11.993,12.08-11.993c6.673,0,12.082,5.369,12.082,11.993     C137.306,147.35,131.896,152.72,125.224,152.72z" fill="#231F20" opacity="0.2"/><path d="M149.744,75.477l-72.375,71.848l286.404,284.321l72.376-71.847L149.744,75.477z M125.224,149.098     c-6.671,0-12.08-5.369-12.08-11.993s5.409-11.993,12.08-11.993c6.673,0,12.082,5.369,12.082,11.993     S131.896,149.098,125.224,149.098z" fill="#FFFFFF"/><path d="M126.622,100.241l-48.34,47.989l285.491,283.416l48.34-47.989L126.622,100.241z M125.224,150.909     c-6.671,0-12.08-5.369-12.08-11.993s5.409-11.993,12.08-11.993c6.673,0,12.082,5.369,12.082,11.993     S131.896,150.909,125.224,150.909z" fill="#BFD8E5"/><g><polygon fill="#0E2037" points="164.618,126.252 182.754,108.247 179.997,105.508 161.86,123.512     "/><polygon fill="#0E2037" points="137.891,99.717 156.027,81.713 153.267,78.975 135.133,96.978     "/><polygon fill="#0E2037" points="155.378,100.045 164.935,90.558 162.178,87.819 152.62,97.307     "/><polygon fill="#0E2037" points="155.709,117.406 173.845,99.402 171.087,96.664 152.951,114.667     "/><polygon fill="#0E2037" points="182.107,126.58 191.666,117.091 188.905,114.353 179.349,123.841     "/><polygon fill="#0E2037" points="182.438,143.94 200.575,125.937 197.816,123.197 179.68,141.203     "/><polygon fill="#0E2037" points="199.927,144.267 209.484,134.783 206.724,132.042 197.167,141.53     "/><polygon fill="#0E2037" points="200.258,161.629 218.393,143.625 215.635,140.886 197.498,158.892     "/><polygon fill="#0E2037" points="217.747,161.958 227.302,152.472 224.543,149.732 214.987,159.219     "/><polygon fill="#0E2037" points="218.076,179.32 236.211,161.317 233.455,158.576 215.318,176.582     "/><polygon fill="#0E2037" points="235.563,179.648 245.122,170.16 242.364,167.422 232.806,176.91     "/><polygon fill="#0E2037" points="235.895,197.009 254.031,179.004 251.271,176.267 233.138,194.269     "/><polygon fill="#0E2037" points="253.384,197.338 262.942,187.849 260.182,185.111 250.624,194.599     "/><polygon fill="#0E2037" points="253.714,214.697 271.849,196.695 269.091,193.957 250.958,211.959     "/><polygon fill="#0E2037" points="271.202,215.027 280.758,205.54 278.002,202.799 268.444,212.288     "/><polygon fill="#0E2037" points="271.535,232.387 289.669,214.384 286.911,211.645 268.774,229.65     "/><polygon fill="#0E2037" points="289.022,232.715 298.58,223.229 295.82,220.489 286.262,229.978     "/><polygon fill="#0E2037" points="289.353,250.078 307.487,232.076 304.729,229.333 286.596,247.339     "/><polygon fill="#0E2037" points="306.838,250.406 316.396,240.919 313.638,238.179 304.082,247.667     "/><polygon fill="#0E2037" points="307.171,267.767 325.307,249.765 322.551,247.024 304.415,265.028     "/><polygon fill="#0E2037" points="324.66,268.096 334.218,258.607 331.457,255.869 321.9,265.357     "/><polygon fill="#0E2037" points="324.989,285.458 343.125,267.452 340.367,264.714 322.231,282.718     "/><polygon fill="#0E2037" points="342.478,285.787 352.036,276.297 349.276,273.56 339.718,283.046     "/><polygon fill="#0E2037" points="342.809,303.145 360.945,285.144 358.189,282.403 340.051,300.407     "/><polygon fill="#0E2037" points="360.298,303.476 369.853,293.987 367.095,291.249 357.538,300.737     "/><polygon fill="#0E2037" points="360.629,320.836 378.764,302.833 376.003,300.094 357.873,318.097     "/><polygon fill="#0E2037" points="378.116,321.167 387.674,311.676 384.915,308.939 375.356,318.426     "/><polygon fill="#0E2037" points="378.447,338.523 396.583,320.52 393.824,317.783 375.691,335.786     "/><polygon fill="#0E2037" points="395.935,338.855 405.495,329.366 402.734,326.625 393.178,336.115     "/><polygon fill="#0E2037" points="396.267,356.212 414.4,338.211 411.642,335.473 393.507,353.476     "/><polygon fill="#0E2037" points="413.754,356.543 423.313,347.055 420.553,344.318 410.997,353.806     "/><polygon fill="#0E2037" points="414.085,373.905 432.224,355.899 429.462,353.162 411.327,371.166     "/></g></g><g><path d="M141.949,346.949l-50.794,73.847c-1.27-1.268-1.647-3.247-0.993-5.255     c0.015-0.043,0.028-0.085,0.04-0.129l6.757-19.427l25.434-73.254l1.249-3.604l12.229-8.644l21.27,20.906L141.949,346.949z" fill="#F2F2F2"/><path d="M193.105,388.59l-3.593,1.242l-73.471,25.231l-20.407,7.018c-1.636,0.3-3.187-0.087-4.272-1.097     c-0.022-0.021-0.048-0.027-0.063-0.062c-0.053-0.038-0.099-0.083-0.145-0.126l73.952-50.691l15.473-15.47l22.339,22.341     L193.105,388.59z" fill="#E8E8E8"/><g><polygon fill="#FFFFFF" points="180.58,354.635 165.107,370.105 91.155,420.796 141.949,346.949 157.141,331.388       169.083,343.139     "/><polygon fill="#FFFFFF" points="186.715,348.5 180.58,354.635 169.083,343.139 157.141,331.388 165.184,323.161     "/><path d="M202.926,376.979l-9.816,11.611l-3.593,1.24c3.801-14.905-9.002-26.147-24.407-19.725      c6.873-16.498-6.493-29.994-22.956-23.356l-0.199,0.199c0.022-0.053,0.034-0.098,0.058-0.151      c-0.054,0.022-0.099,0.035-0.152,0.058l0.2-0.198c6.108-15.152-4.98-27.666-19.665-23.928l1.25-3.604l11.353-9.438      L202.926,376.979z" fill="#F1C40F"/><g><path d="M146.622,342.1c16.588-6.915,30.158,6.653,23.246,23.246c72.806-72.807,145.612-145.614,218.419-218.42       c-7.749-7.75-15.497-15.496-23.244-23.244C292.235,196.486,219.428,269.293,146.622,342.1z" fill="#0E2037"/><path d="M146.622,342.1c16.588-6.915,30.158,6.653,23.246,23.246       c72.806-72.807,145.612-145.614,218.419-218.42c-7.749-7.75-15.497-15.496-23.244-23.244       C292.235,196.486,219.428,269.293,146.622,342.1z" fill="#FFFFFF" opacity="0.1"/><path d="M169.867,365.346c16.59-6.913,30.156,6.653,23.244,23.244       c72.806-72.809,145.613-145.612,218.419-218.418c-7.746-7.751-15.494-15.497-23.244-23.246       C315.479,219.732,242.673,292.539,169.867,365.346z" fill="#0E2037"/><path d="M123.646,319.125c16.462-6.862,29.927,6.602,23.065,23.065       c72.808-72.807,145.613-145.613,218.419-218.421c-7.687-7.687-15.376-15.376-23.064-23.064       C269.262,173.512,196.454,246.319,123.646,319.125z" fill="#0E2037"/><path d="M123.646,319.125c16.462-6.862,29.927,6.602,23.065,23.065       c72.808-72.807,145.613-145.613,218.419-218.421c-7.687-7.687-15.376-15.376-23.064-23.064       C269.262,173.512,196.454,246.319,123.646,319.125z" fill="#FFFFFF" opacity="0.2"/></g><path d="M116.047,415.066l-19.461,6.726c-2.14,0.833-4.116,0.473-5.477-0.886      c-1.226-1.224-1.74-3.215-0.903-5.498l6.742-19.44L116.047,415.066z" fill="#0E2037"/><path d="M411.397,170.035l5.359-5.357c6.297-6.3,7.277-15.533,2.189-20.625l-51.032-51.031      c-5.089-5.089-14.325-4.109-20.625,2.19l-5.356,5.359L411.397,170.035z" fill="#FFFFFF"/></g></g></g></svg>