<?xml version="1.0" ?><!DOCTYPE svg  PUBLIC '-//W3C//DTD SVG 1.1//EN'  'http://www.w3.org/Graphics/SVG/1.1/DTD/svg11.dtd'><svg enable-background="new 0 0 512 512" height="512px" id="Layer_1" version="1.1" viewBox="0 0 512 512" width="512px" xml:space="preserve" xmlns="http://www.w3.org/2000/svg" xmlns:xlink="http://www.w3.org/1999/xlink"><g><g><path d="M512,256c0,136.4-106.675,247.885-241.15,255.565C265.935,511.848,260.995,512,256,512     C114.61,512,0,397.39,0,256C0,114.612,114.61,0,256,0c122.575,0,225,86.12,250.085,201.14C509.979,218.805,512,237.16,512,256z" fill="#0F2B4F"/><g><radialGradient cx="278.5234" cy="270.3843" gradientTransform="matrix(2.56 0 0 2.56 -399.3611 -399.3591)" gradientUnits="userSpaceOnUse" id="SVGID_1_" r="81.5586"><stop offset="0.5744" style="stop-color:#130C0E"/><stop offset="0.7977" style="stop-color:#130C0E"/><stop offset="1" style="stop-color:#130C0E"/></radialGradient><path d="M512,256c0,136.4-106.675,247.885-241.15,255.565l-83.02-76.85      c-4.38-2.97-7.425-7.73-8.04-13.31L158.825,231.58c-0.125-0.09-35.78-32.915-36.38-33.715c-2.891-1.82-5.195-4.585-6.351-8.09      c-2.635-7.935,1.665-16.54,9.625-19.175l24.681-8.218c0,0,0,0-0.025,0.025l34.635-11.52l-3.989-12.033      c-5.506-16.563,3.505-34.535,20.069-40.038L270.646,75.7c12.234-4.07,25.215-0.205,33.38,8.755l20.56,18.945      c0.33,0.255,0.615,0.538,0.945,0.795l47.104-15.642c6.375-2.125,13.13,0.202,16.945,5.322      c1.565,0.975,116.045,106.855,116.505,107.265C509.979,218.805,512,237.16,512,256z" fill="url(#SVGID_1_)" opacity="0.4"/><g><g><path d="M396.7,152.595L347.54,263.08l-89.12-39.655l49.16-110.48c1.96,0.55,4.085-0.4,4.935-2.315        l2.056,0.915c-0.931,2.1,0.015,4.565,2.114,5.505l0.396,0.175c2.1,0.933,4.57-0.015,5.5-2.115l2.06,0.915        c-0.864,1.94-0.119,4.19,1.655,5.26l0,0c0.146,0.09,0.295,0.175,0.455,0.242l0.4,0.173c2.1,0.94,4.564-0.01,5.5-2.11        l2.06,0.915c-0.935,2.1,0.01,4.565,2.11,5.502l0.395,0.173c2.101,0.94,4.565-0.01,5.505-2.11l2.056,0.915        c-0.936,2.1,0.01,4.565,2.114,5.505l0.391,0.17c2.104,0.938,4.569-0.01,5.505-2.11l2.06,0.915        c-0.935,2.098,0.01,4.565,2.11,5.498l0.395,0.178c2.101,0.935,4.575-0.013,5.505-2.11l2.056,0.91        c-0.94,2.105,0.015,4.57,2.11,5.502l0.385,0.167l0.015,0.01c1.985,0.88,4.305,0.085,5.335-1.785h0.005        c0.061-0.11,0.115-0.217,0.165-0.33l0.351,0.155l1.704,0.765c-0.935,2.095,0.011,4.565,2.11,5.5l0.396,0.175        c2.1,0.933,4.574-0.013,5.505-2.115l2.055,0.915c-0.93,2.103,0.015,4.57,2.115,5.5l0.395,0.18        c2.101,0.933,4.565-0.013,5.5-2.115l2.061,0.915c-0.125,0.28-0.21,0.568-0.275,0.855        C394.49,149.92,395.225,151.667,396.7,152.595z" fill="#EBD1AE"/><path d="M336.725,173.385L287.57,283.868l-89.12-39.653l49.154-110.485c1.961,0.555,4.08-0.395,4.936-2.31        l2.055,0.915c-0.93,2.1,0.016,4.565,2.12,5.505l0.39,0.17c2.101,0.94,4.57-0.01,5.506-2.11l2.06,0.915        c-0.725,1.625-0.32,3.475,0.875,4.655c0.351,0.35,0.76,0.635,1.235,0.847l0.395,0.173c2.101,0.94,4.57-0.01,5.5-2.11        l2.061,0.915c-0.936,2.1,0.015,4.565,2.114,5.502l0.396,0.173c2.1,0.935,4.564-0.01,5.5-2.115l2.06,0.92        c-0.939,2.1,0.011,4.565,2.11,5.5l0.395,0.175c1.016,0.45,2.11,0.465,3.08,0.12h0.006c1.039-0.37,1.935-1.145,2.414-2.235        l2.056,0.915c-0.931,2.103,0.015,4.57,2.12,5.505l0.395,0.175c2.1,0.935,4.565-0.013,5.5-2.115l2.061,0.915        c-0.841,1.877-0.17,4.045,1.475,5.147c0.195,0.138,0.41,0.258,0.635,0.355l0.396,0.178c2.1,0.935,4.569-0.013,5.505-2.115        l2.06,0.915c-0.939,2.1,0.011,4.57,2.11,5.505l0.395,0.175c2.101,0.933,4.565-0.015,5.5-2.115l2.061,0.915        c-0.94,2.1,0.01,4.565,2.109,5.502l0.396,0.173c2.1,0.938,4.57-0.013,5.505-2.11l2.055,0.915        c-0.125,0.275-0.215,0.56-0.27,0.855C334.521,170.71,335.25,172.458,336.725,173.385z" fill="#FFFFFF"/><path d="M367.405,139.61l-60.99,20.268l-23.14,7.692l-59.525,19.78l16.705-37.542l25.09-8.337        c0.351,0.35,0.76,0.635,1.235,0.847l0.395,0.173c2.101,0.94,4.57-0.01,5.5-2.11l2.061,0.915        c-0.936,2.1,0.015,4.565,2.114,5.502l0.396,0.173c2.1,0.935,4.564-0.01,5.5-2.115l2.06,0.92c-0.939,2.1,0.011,4.565,2.11,5.5        l0.395,0.175c1.016,0.45,2.11,0.465,3.08,0.12h0.006l9.579-21.54h0.005l26.315-8.745l0,0c0.146,0.09,0.295,0.175,0.455,0.242        l0.4,0.173c2.1,0.94,4.564-0.01,5.5-2.11l2.06,0.915c-0.935,2.1,0.01,4.565,2.11,5.502l0.395,0.173        c2.101,0.94,4.565-0.01,5.505-2.11l2.056,0.915c-0.936,2.1,0.01,4.565,2.114,5.505l0.391,0.17        c2.104,0.938,4.569-0.01,5.505-2.11l2.06,0.915c-0.935,2.098,0.01,4.565,2.11,5.498l0.395,0.178        c2.101,0.935,4.575-0.013,5.505-2.11l2.056,0.91c-0.94,2.105,0.015,4.57,2.11,5.502L367.405,139.61z" opacity="0.2"/></g><g><g><g><g><path d="M270.58,178.74v257.55h-72.365c-9.455,0-17.399-7.115-18.435-16.515L157,213.545l-3.354-30.355           l-0.49-4.45H270.58z" fill="#56A120"/><path d="M388.01,178.74l-0.489,4.45l-3.355,30.355l-22.775,206.23c-1.045,9.4-8.984,16.515-18.439,16.515           h-72.37V178.74H388.01z" fill="#3A780D"/></g><polygon opacity="0.2" points="388.01,178.74 381.985,233.3 262.07,196.21 154.8,193.655 153.155,178.74         "/><path d="M200.575,423.765c-6.65,0-12.32-5.07-12.94-11.825l-17.08-186.91          c-0.649-7.155,4.615-13.485,11.775-14.14c7.155-0.655,13.485,4.615,14.14,11.77l17.08,186.91          c0.65,7.155-4.62,13.49-11.774,14.14C201.375,423.75,200.975,423.765,200.575,423.765z" fill="#FFFFFF" opacity="0.3"/><path d="M340.59,423.765c-0.399,0-0.8-0.015-1.2-0.055c-7.16-0.65-12.43-6.985-11.774-14.14          l17.08-186.91c0.654-7.155,6.984-12.43,14.14-11.77c7.155,0.655,12.425,6.985,11.77,14.14l-17.079,186.91          C352.91,418.695,347.24,423.765,340.59,423.765z" fill="#FFFFFF" opacity="0.3"/><path d="M270.58,423.765c-7.18,0-13.01-5.825-13.01-13.01v-186.91          c0-7.185,5.83-13.01,13.01-13.01c7.185,0,13.015,5.825,13.015,13.01v186.91C283.595,417.94,277.765,423.765,270.58,423.765z          " fill="#FFFFFF" opacity="0.3"/></g></g><g><g><path d="M247.26,286.76c-9.609-6.372-19.215-12.745-28.819-19.115c6.362-9.598,12.727-19.19,19.092-28.783          c12.743-19.217,41.563-0.102,28.817,19.108C259.99,267.57,253.622,277.17,247.26,286.76z" fill="#D9D9D9"/><path d="M250.2,230.88c8.33,0.92,28.2,43.188,28.2,43.188l33.564-17.27l-14.26-25.917H250.2z" fill="#FFFFFF"/><polygon fill="#FFFFFF" points="305.19,279.928 266.835,279.928 322.729,247.6         "/></g><g><g><path d="M303.845,299.625c10.7-4.285,21.4-8.57,32.103-12.865c4.282,10.69,8.567,21.38,12.851,32.065           c8.577,21.402-23.522,34.267-32.103,12.87C312.415,321.005,308.13,310.315,303.845,299.625z" fill="#D9D9D9"/><path d="M344.685,333.69h-45.087v38.433h24.697c1.888,0,3.628-1.034,4.53-2.694l20.55-37.796h-0.05           C348.197,332.895,346.537,333.69,344.685,333.69z" fill="#FFFFFF"/><polygon fill="#FFFFFF" points="280.74,351.022 300.065,384.145 299.83,319.58          "/></g><g><path d="M265.22,332.28c0.056,11.525,0.105,23.053,0.16,34.58c-11.515,0.053-23.03,0.105-34.545,0.165           c-23.055,0.1-23.215-34.48-0.16-34.585C242.19,332.385,253.705,332.333,265.22,332.28z" fill="#D9D9D9"/><path d="M215.19,351.513l21.965-39.35l-33.54-18.723l-12.032,21.555c-0.921,1.648-0.865,3.668,0.145,5.265           l22.973,36.345l0.024-0.045C214.175,354.965,214.287,353.127,215.19,351.513z" fill="#FFFFFF"/><polygon fill="#FFFFFF" points="230.965,286.76 192.615,287.17 248.85,318.9          "/></g></g></g></g><g><path d="M311.24,138.645c-6.82,2.265-14.186-1.425-16.45-8.245l-8.78-26.42        c-0.984-2.96-4.189-4.57-7.155-3.585l-69.55,23.115c-2.96,0.985-4.564,4.19-3.585,7.155l8.78,26.42        c2.265,6.817-1.425,14.18-8.24,16.448c-6.819,2.267-14.185-1.423-16.45-8.243l-8.779-26.42        c-5.51-16.575,3.495-34.545,20.069-40.055l69.551-23.11c16.574-5.51,34.545,3.495,40.055,20.07l8.78,26.42        C321.75,129.015,318.06,136.38,311.24,138.645z" fill="#6BC527"/><path d="M189.495,145.095c-1.59,0.527-3.311-0.335-3.84-1.925        c-6.035-18.165,3.83-37.855,21.995-43.89l69.55-23.115c1.595-0.527,3.31,0.335,3.84,1.925c0.53,1.59-0.33,3.31-1.925,3.84        l-69.545,23.11c-14.99,4.98-23.13,21.23-18.15,36.215C191.945,142.845,191.085,144.565,189.495,145.095z" fill="#FFFFFF" opacity="0.7"/><path d="M382.2,117.345l-246.91,82.057c-7.955,2.643-16.55-1.662-19.19-9.617        c-2.645-7.955,1.66-16.545,9.615-19.19l246.91-82.055c7.955-2.645,16.545,1.66,19.19,9.615        C394.46,106.11,390.155,114.705,382.2,117.345z" fill="#6BC527"/><path d="M140.79,181.58c-2.645-7.955,1.66-16.55,9.615-19.19l-24.69,8.205        c-7.955,2.645-12.26,11.235-9.615,19.19c2.641,7.955,11.235,12.26,19.19,9.617l24.689-8.208        C152.025,193.84,143.435,189.535,140.79,181.58z" fill="#FFFFFF" opacity="0.5"/></g></g></g></g></g></svg>