<?xml version="1.0" ?><!DOCTYPE svg  PUBLIC '-//W3C//DTD SVG 1.1//EN'  'http://www.w3.org/Graphics/SVG/1.1/DTD/svg11.dtd'><svg enable-background="new 0 0 512 512" height="512px" version="1.1" viewBox="0 0 512 512" width="512px" xml:space="preserve" xmlns="http://www.w3.org/2000/svg" xmlns:xlink="http://www.w3.org/1999/xlink"><g id="Others"><g id="files"/><g id="pencil_rocket"/><g id="magic_hat__x26__rabbit"/><g id="phone__x26__target"/><g id="toast"/><g id="coffee"/><g id="suit"/><g id="DNA_tube"/><g id="clapper"/><g id="stopwatch"/><g id="map__x26__locator"/><g id="envelope"/><g id="phone__x26__megaphone"/><g id="speech_bubble"/><g id="medal"/></g><g id="Design"><g id="blueprint"/><g id="computer__x26__pencil__x26__ruker"/><g id="pencil__x26__ruler__x26__eraser"/><g id="paint_brush"/><g id="eraser"/><g id="round_brush"/><g id="scissor"><radialGradient cx="256" cy="256" gradientUnits="userSpaceOnUse" id="SVGID_1_" r="256"><stop offset="0.0051" style="stop-color:#33495F"/><stop offset="1" style="stop-color:#2B3E51"/></radialGradient><circle cx="256" cy="256" fill="url(#SVGID_1_)" r="256"/><g><polygon fill="#BDC3C7" points="297.633,237.758 326.24,107.353 316.346,84.047 257.113,230.17 199.662,82.646 189.42,105.824      216.244,236.605 247.402,248.6 248.5,251.419 225.135,309.061 240.141,313.93 256.818,272.783 272.697,313.557 287.77,308.895      265.432,251.536 266.328,249.328    "/><path d="M249.664,300.406c0.775-1.909-0.154-4.105-2.064-4.879l-14.584-5.912c-1.91-0.774-4.5-0.072-5.758,1.562     L198.91,328.03c-5.225-5.04-11.479-9.187-18.617-12.08c-29.916-12.128-64,2.294-76.129,32.211     c-12.127,29.918,2.295,64.001,32.213,76.128c29.916,12.127,64-2.293,76.127-32.211c0.379-0.932,0.73-1.868,1.057-2.807     c0.137-0.206,0.254-0.428,0.352-0.665L249.664,300.406z M143.203,407.448c-20.617-8.356-30.553-31.843-22.197-52.46     c8.357-20.616,31.844-30.555,52.461-22.197c5.59,2.266,10.393,5.646,14.26,9.779c10.398,11.105,14.027,27.655,7.938,42.682     C187.305,405.868,163.818,415.806,143.203,407.448z" fill="#00CA77"/><polygon fill="#ECF0F1" points="281.805,169.258 313.473,165.553 317.379,147.743 289.189,151.041    "/><polygon fill="#ECF0F1" points="274.076,188.322 309.383,184.192 311.541,174.354 278.156,178.26    "/><path d="M297.895,388.586c0.094,0.238,0.178,0.475,0.312,0.682c0.314,0.943,0.637,1.891,1.002,2.828     c11.717,30.081,45.59,44.973,75.672,33.259c30.08-11.714,44.965-45.595,33.25-75.676s-45.598-44.971-75.678-33.257     c-7.18,2.797-13.49,6.856-18.783,11.824l-27.84-37.239c-1.232-1.651-3.814-2.39-5.734-1.642l-14.664,5.71     c-1.92,0.748-2.82,2.908-2.072,4.827L297.895,388.586z M316.129,385.507c-5.885-15.109-2.027-31.607,8.523-42.568     c3.924-4.079,8.771-7.393,14.393-9.581c20.729-8.073,44.078,2.188,52.15,22.916c8.072,20.729-2.189,44.078-22.918,52.15     S324.201,406.236,316.129,385.507z" fill="#00AF67"/><polygon fill="#ECF0F1" points="233.027,168.324 201.385,164.195 197.738,146.328 225.895,150.008    "/><polygon fill="#ECF0F1" points="240.492,187.494 205.217,182.889 203.209,173.017 236.553,177.376    "/><path d="M253.564,221.061c-10.84,1.215-19.297,10.434-19.297,21.592c0,0.303,0.012,0.602,0.023,0.9l13.111,5.047     l1.098,2.819l-3.934,9.703c3.324,2.065,7.24,3.263,11.434,3.263c4.785,0,9.211-1.559,12.805-4.188l-3.373-8.66l0.896-2.208     l11.254-4.159c0.096-0.827,0.15-1.665,0.15-2.517c0-10.385-7.324-19.086-17.076-21.224l-3.543,8.741L253.564,221.061z" fill="#94A5A6"/><circle cx="256.001" cy="242.652" fill="#ECF0F1" r="17.985"/><circle cx="256" cy="242.652" fill="#BDC3C7" r="9.742"/></g></g><g id="wacom"/><g id="vector"/><g id="lightbulb"/><g id="lamp"/><g id="pencil__x26__brush"/><g id="laptop__x26__brush"/><g id="paint"/><g id="magic_wand"/></g><g id="SEO_x2F__Web"><g id="W_key"/><g id="link_plus"/><g id="website__x26__lock"/><g id="video"/><g id="maginifier__x26__target"/><g id="website__x26__setting_1_"/><g id="website__x26__code"/><g id="SEO_tag"/><g id="website__x26__wrench"/><g id="crown"/><g id="eye"/><g id="website__x26__clock"/><g id="spider"/><g id="website__x26__medal"/><g id="graph"/></g><g id="Finance__x2F__Money"><g id="diamond"/><g id="calculating"/><g id="calculator"/><g id="auction_hammer"/><g id="bag_of_money"/><g id="piggy_bank"/><g id="bank"/><g id="umbrella__x26__coins"/><g id="safe"/><g id="treasure"/><g id="cash__x26__card"/><g id="coins__x26__cash"/><g id="coins__x26__card"/><g id="briefcase"/><g id="cash"/></g><g id="E-Commerce__x2F__Shopping"><g id="New_Symbol"/><g id="mobile__x26__finger"/><g id="price_tag"/><g id="website__x26__magnifier"/><g id="hand_to_ahnd_delivery"/><g id="hand__x26__credit_card"/><g id="hand__x26__iPad"/><g id="empty_basket"/><g id="full_basket"/><g id="trolley"/><g id="wallet"/><g id="truck"/><g id="delivery"/><g id="gift"/><g id="hand__x26__shopping_bag"/><g id="iMac_with_products"/><g id="laptop_store"/><g id="shopping_bag_with_mouse"/><g id="mobile_store"/><g id="store"/><g id="laptop_with_money"/></g><g id="Strategy"><g id="money_palnt"/><g id="contract"/><g id="trophy"/><g id="graph_paper"/><g id="competition"/><g id="checklist"/><g id="megaphone"/><g id="paper_airplane"/><g id="mission_1"/><g id="graph_board"/><g id="mission_2"/><g id="strategy"/><g id="target"/><g id="partnership"/><g id="chess"/></g></svg>