<?xml version="1.0" ?><!DOCTYPE svg  PUBLIC '-//W3C//DTD SVG 1.1//EN'  'http://www.w3.org/Graphics/SVG/1.1/DTD/svg11.dtd'><svg enable-background="new 0 0 512 512" height="512px" id="Layer_1" version="1.1" viewBox="0 0 512 512" width="512px" xml:space="preserve" xmlns="http://www.w3.org/2000/svg" xmlns:xlink="http://www.w3.org/1999/xlink"><g><circle cx="256" cy="256" fill="#26B999" r="256"/><g><g><g><g><path d="M404.971,385.637H107.03c-5.201,0-9.15-1.851-11.793-4.631c-0.804-0.83-1.482-1.734-2.037-2.685        c-5.431-9.17-0.801-23.777,13.83-23.777h297.94c6.866,0,11.541,3.22,13.978,7.586c0.502,0.853,0.907,1.778,1.207,2.704        C423.176,373.883,418.094,385.637,404.971,385.637z" fill="#3D3437"/><path d="M111.222,359.047c-0.193,0.486-0.146,1.057,0.122,1.502        c0.269,0.443,0.716,0.696,1.184,0.669c0.555-0.039,1.135-0.064,1.758-0.078c6.051-0.14,8.884,0.818,12.463,2.02        c3.951,1.338,8.433,2.84,17.084,2.642c8.659-0.194,13.054-1.905,16.935-3.419c3.52-1.368,6.295-2.454,12.347-2.594        c6.046-0.136,8.877,0.818,12.455,2.021c3.948,1.336,8.429,2.84,17.08,2.64c1.974-0.04,3.56-0.774,3.541-1.623        c-0.02-0.85-1.641-1.509-3.614-1.466c-6.05,0.139-8.88-0.816-12.459-2.022c-3.948-1.332-8.424-2.839-17.08-2.641        c-8.651,0.2-13.052,1.909-16.932,3.423c-3.519,1.368-6.295,2.455-12.345,2.596c-6.055,0.139-8.88-0.822-12.464-2.022        c-3.953-1.339-8.43-2.841-17.083-2.643c-0.752,0.018-1.462,0.048-2.147,0.087        C111.732,358.158,111.433,358.501,111.222,359.047z" fill="#FFFFFF" opacity="0.07"/><path d="M233.697,384.789c0,0.31-0.401,0.628-1.031,0.848        c-0.552,0.197-1.257,0.345-2.063,0.345c-3.167,0.072-5.681-0.074-7.816-0.345c-2.94-0.387-5.104-0.972-7.091-1.535        c-3.118-0.878-5.582-1.582-10.863-1.464c-5.279,0.125-7.717,0.927-10.782,1.951c-1.032,0.342-2.141,0.713-3.369,1.048h-24.993        c-0.456-0.119-0.907-0.241-1.333-0.362c-3.119-0.877-5.608-1.561-10.863-1.464c-0.553,0.023-1.055,0.045-1.556,0.07        c-0.404,0.026-0.782-0.167-1.031-0.485c-0.229-0.319-0.252-0.758-0.101-1.1c0.2-0.411,0.451-0.655,0.754-0.682        c0.604-0.023,1.207-0.048,1.86-0.072c7.566-0.17,11.464,0.927,14.907,1.901c3.12,0.88,5.584,1.565,10.863,1.441        c5.278-0.125,7.719-0.931,10.787-1.954c3.393-1.123,7.24-2.389,14.807-2.56c7.544-0.169,11.443,0.925,14.885,1.88        c3.119,0.878,5.583,1.583,10.862,1.463C232.264,383.666,233.674,384.147,233.697,384.789z" fill="#FFFFFF" opacity="0.07"/><path d="M384.204,369.593c0.146-0.276,0.129-0.609-0.035-0.872        c-0.172-0.268-0.473-0.429-0.79-0.429c-0.383,0.005-0.782,0.005-1.212-0.008c-4.146-0.106-6.059-0.748-8.473-1.558        c-2.665-0.897-5.686-1.904-11.624-2.061c-5.938-0.155-9.007,0.693-11.717,1.45c-2.458,0.685-4.396,1.224-8.547,1.114        c-4.146-0.106-6.059-0.749-8.474-1.557c-2.664-0.897-5.68-1.907-11.618-2.062c-1.358-0.035-2.463,0.339-2.476,0.829        c-0.018,0.495,1.07,0.926,2.423,0.961c4.156,0.11,6.063,0.749,8.474,1.553c2.665,0.901,5.686,1.909,11.619,2.066        c5.943,0.155,9.011-0.695,11.718-1.451c2.457-0.688,4.4-1.225,8.547-1.113c4.155,0.105,6.063,0.744,8.477,1.556        c2.661,0.897,5.686,1.905,11.619,2.063c0.516,0.012,1.006,0.017,1.474,0.017C383.821,370.092,384.036,369.901,384.204,369.593        z" fill="#FFFFFF" opacity="0.07"/><path d="M411.527,375.859c0.111-0.292,0.057-0.618-0.146-0.864        c-0.197-0.245-0.516-0.367-0.838-0.324c-0.374,0.046-0.773,0.091-1.195,0.129c-4.133,0.378-6.109-0.038-8.606-0.559        c-2.759-0.577-5.882-1.226-11.8-0.684c-5.912,0.542-8.855,1.743-11.45,2.811c-2.354,0.959-4.211,1.726-8.345,2.103        c-4.134,0.38-6.11-0.034-8.603-0.554c-2.759-0.581-5.878-1.232-11.795-0.691c-1.35,0.128-2.401,0.627-2.354,1.114        c0.048,0.495,1.182,0.795,2.531,0.667c4.133-0.372,6.11,0.038,8.602,0.554c2.755,0.581,5.878,1.231,11.791,0.69        c5.917-0.536,8.856-1.743,11.451-2.811c2.354-0.964,4.215-1.727,8.349-2.102c4.134-0.381,6.106,0.035,8.607,0.554        c2.754,0.58,5.878,1.228,11.794,0.69c0.512-0.052,0.997-0.104,1.461-0.158C411.214,376.402,411.403,376.186,411.527,375.859z" fill="#FFFFFF" opacity="0.07"/><path d="M420.155,364.834c-0.705,0.124-1.457,0.221-2.26,0.292        c-5.908,0.539-9.104-0.654-11.894-1.75c-2.54-0.953-4.551-1.737-8.675-1.373c-1.358,0.149-2.515-0.413-2.588-1.191        c-0.077-0.805,0.954-1.536,2.286-1.658c5.935-0.56,9.101,0.658,11.92,1.76c2.539,0.948,4.55,1.73,8.675,1.36        c0.474-0.043,0.929-0.095,1.328-0.144C419.45,362.982,419.855,363.908,420.155,364.834z" fill="#FFFFFF" opacity="0.07"/><path d="M95.237,381.006c0.052-0.024,0.129-0.071,0.177-0.098        c2.311-1.413,4.15-2.539,8.271-2.905c4.124-0.388,6.136,0.396,8.674,1.368c2.817,1.077,5.984,2.294,11.921,1.756        c0.5-0.051,0.979-0.121,1.457-0.169c0.227-0.05,0.402-0.368,0.502-0.881c0.103-0.461,0.023-0.998-0.202-1.387        c-0.202-0.416-0.526-0.635-0.854-0.589c-0.379,0.077-0.778,0.124-1.206,0.147c-4.123,0.366-6.135-0.39-8.675-1.365        c-2.817-1.075-5.983-2.294-11.892-1.752c-5.054,0.461-7.896,1.828-10.21,3.189L95.237,381.006z" fill="#FFFFFF" opacity="0.07"/><path d="M335.379,379.079c0-0.66-0.404-1.296-1.108-1.684        c-0.705-0.412-1.634-0.564-2.488-0.391c-1.861,0.34-3.446,0.753-4.954,1.148c-0.1,0.05-0.202,0.072-0.302,0.096        c-0.403,0.098-0.854,0.052-1.182-0.147c-0.353-0.169-0.554-0.486-0.527-0.805c-4.022-0.363-6.411-1.121-9.252-2.021        c-3.871-1.244-8.271-2.658-16.973-2.976c-8.697-0.292-13.226,0.83-17.2,1.804c-1.357,0.341-10.558,3.88-13.221,4.807        c-3.598,1.266-6.438,2.289-12.521,2.166c-6.085-0.118-8.903-1.24-12.448-2.632c-3.896-1.561-8.321-3.313-17.022-3.486        c-1.982-0.025-3.618,0.655-3.644,1.535c0,0.902,1.581,1.635,3.57,1.686c6.085,0.122,8.873,1.219,12.418,2.63        c3.926,1.562,8.349,3.317,17.049,3.487c8.701,0.171,13.199-1.436,17.174-2.824c2.136-0.758,18.854,1.291,22.404,2.676        c1.254,0.491,2.535,1.003,4.021,1.489h27.779c0.855-0.266,1.638-0.562,2.415-0.827c2.363-0.829,6.385-5.146,5.96-5.095        c-0.125-0.175-0.275-0.292-0.404-0.443c0.15-0.049,0.279-0.07,0.456-0.119V379.079z M312.347,381.591        c-13.276-0.219-9.955-5.266-22.502-6.343c2.264-0.413,4.8-0.634,8.624-0.511c6.084,0.195,8.852,1.102,12.366,2.246        c1.688,0.533,3.472,1.097,5.633,1.583c0.404,0.099,2.741,0.049,2.716,1.66C319.137,382.178,316.421,381.641,312.347,381.591z" fill="#FFFFFF" opacity="0.07"/><path d="M262.737,354.544c-1.531,1.1-2.89,2.049-3.643,2.56        c-3.146,2.12-5.634,3.81-11.544,5.192c-5.906,1.393-8.926,1.003-12.722,0.513c-4.174-0.535-8.924-1.121-17.372,0.88        c-1.938,0.44-3.317,1.515-3.117,2.366c0.226,0.88,1.96,1.197,3.896,0.757c5.91-1.392,8.902-1.023,12.699-0.536        c4.198,0.536,8.925,1.146,17.398-0.855c8.445-1.998,12.394-4.661,15.838-6.975c1.887-1.266,18.61-3.438,22.404-2.952        c4.176,0.54,8.924,1.125,17.376-0.854c0.124-0.023,0.249-0.07,0.374-0.096H262.737z" fill="#FFFFFF" opacity="0.07"/></g><path d="M418.406,361.25c-2.564-3.908-7.033-6.706-13.436-6.706c-99.314,0-198.627,0-297.94,0       c-6.4,0-10.869,2.798-13.439,6.706C201.862,361.25,310.139,361.25,418.406,361.25z" fill="#FFFFFF" opacity="0.2"/></g><g><polygon fill="#FFFFFF" points="191.561,354.544 191.459,378.639 184.169,383.474 176.776,378.593 169.384,383.474        162.017,378.593 161.993,378.615 154.627,383.474 147.258,378.593 139.864,383.474 132.375,378.519 132.475,354.544      "/><polygon opacity="0.1" points="191.561,354.544 191.459,378.639 184.169,383.474 176.776,378.593 169.384,383.474        162.017,378.593 161.993,378.615 162.09,354.544      "/><path d="M183.074,356.373h-1.257c-0.531,0-0.931-0.415-0.931-0.901c0-0.513,0.399-0.928,0.931-0.928h1.257       c0.527,0,0.956,0.415,0.956,0.928C184.03,355.958,183.602,356.373,183.074,356.373z M179.304,356.373h-1.258       c-0.53,0-0.932-0.415-0.932-0.901c0-0.513,0.401-0.928,0.932-0.928h1.258c0.526,0,0.953,0.415,0.953,0.928       C180.257,355.958,179.83,356.373,179.304,356.373z M175.53,356.373h-1.256c-0.531,0-0.932-0.415-0.932-0.901       c0-0.513,0.4-0.928,0.932-0.928h1.256c0.528,0,0.957,0.415,0.957,0.928C176.487,355.958,176.059,356.373,175.53,356.373z        M171.761,356.373h-1.258c-0.53,0-0.93-0.415-0.93-0.901c0-0.513,0.399-0.928,0.93-0.928h1.258       c0.527,0,0.953,0.415,0.953,0.928C172.714,355.958,172.288,356.373,171.761,356.373z M168.944,355.472       c0,0.486-0.429,0.901-0.954,0.901h-1.26c-0.528,0-0.931-0.415-0.931-0.901c0-0.513,0.402-0.928,0.931-0.928h1.26       C168.516,354.544,168.944,354.959,168.944,355.472z M165.173,355.472c0,0.486-0.428,0.901-0.955,0.901h-1.258       c-0.502,0-0.93-0.415-0.93-0.901c0-0.513,0.428-0.928,0.93-0.928h1.258C164.745,354.544,165.173,354.959,165.173,355.472z        M160.446,356.373h-1.257c-0.531,0-0.933-0.415-0.933-0.901c0-0.513,0.401-0.928,0.933-0.928h1.257       c0.526,0,0.955,0.415,0.955,0.928C161.401,355.958,160.973,356.373,160.446,356.373z M156.675,356.373h-1.258       c-0.53,0-0.931-0.415-0.931-0.901c0-0.513,0.4-0.928,0.931-0.928h1.258c0.527,0,0.955,0.415,0.955,0.928       C157.63,355.958,157.202,356.373,156.675,356.373z M152.903,356.373h-1.257c-0.531,0-0.931-0.415-0.931-0.901       c0-0.513,0.399-0.928,0.931-0.928h1.257c0.528,0,0.954,0.415,0.954,0.928C153.857,355.958,153.432,356.373,152.903,356.373z        M149.131,356.373h-1.257c-0.531,0-0.931-0.415-0.931-0.901c0-0.513,0.399-0.928,0.931-0.928h1.257       c0.528,0,0.956,0.415,0.956,0.928C150.087,355.958,149.659,356.373,149.131,356.373z M145.36,356.373h-1.258       c-0.53,0-0.93-0.415-0.93-0.901c0-0.513,0.399-0.928,0.93-0.928h1.258c0.528,0,0.956,0.415,0.956,0.928       C146.316,355.958,145.889,356.373,145.36,356.373z M141.59,356.373h-1.259c-0.503,0-0.931-0.415-0.931-0.901       c0-0.513,0.428-0.928,0.931-0.928h1.259c0.525,0,0.953,0.415,0.953,0.928C142.543,355.958,142.115,356.373,141.59,356.373z" fill="#EA3924"/><path d="M136.068,355.863v1.22c0,0.512-0.425,0.928-0.954,0.928c-0.528,0-0.956-0.416-0.956-0.928v-1.22       c0-0.486,0.428-0.904,0.956-0.904C135.644,354.959,136.068,355.377,136.068,355.863z M136.068,359.524v1.219       c0,0.511-0.425,0.923-0.954,0.923c-0.528,0-0.956-0.412-0.956-0.923v-1.219c0-0.491,0.428-0.906,0.956-0.906       C135.644,358.618,136.068,359.033,136.068,359.524z M136.068,363.184v1.221c0,0.507-0.425,0.922-0.954,0.922       c-0.528,0-0.956-0.415-0.956-0.922v-1.221c0-0.49,0.428-0.91,0.956-0.91C135.644,362.273,136.068,362.693,136.068,363.184z        M136.068,366.84v1.221c0,0.507-0.425,0.926-0.954,0.926c-0.528,0-0.956-0.419-0.956-0.926v-1.221       c0-0.49,0.428-0.904,0.956-0.904C135.644,365.936,136.068,366.35,136.068,366.84z M136.068,370.498v1.218       c0,0.512-0.425,0.928-0.954,0.928c-0.528,0-0.956-0.416-0.956-0.928v-1.218c0-0.487,0.428-0.902,0.956-0.902       C135.644,369.596,136.068,370.011,136.068,370.498z M136.068,374.159v1.218c0,0.508-0.425,0.922-0.954,0.922       c-0.528,0-0.956-0.414-0.956-0.922v-1.218c0-0.488,0.428-0.908,0.956-0.908C135.644,373.251,136.068,373.671,136.068,374.159z        M136.068,377.814v1.218c0,0.511-0.425,0.929-0.954,0.929c-0.528,0-0.956-0.418-0.956-0.929v-1.218       c0-0.487,0.428-0.906,0.956-0.906C135.644,376.908,136.068,377.327,136.068,377.814z" fill="#EA3924"/><path d="M187.272,355.863c0-0.486,0.427-0.904,0.955-0.904c0.529,0,0.956,0.418,0.956,0.904v1.22       c0,0.512-0.427,0.928-0.956,0.928c-0.528,0-0.955-0.416-0.955-0.928V355.863z M187.272,359.524       c0-0.491,0.427-0.906,0.955-0.906c0.529,0,0.956,0.415,0.956,0.906v1.219c0,0.511-0.427,0.923-0.956,0.923       c-0.528,0-0.955-0.412-0.955-0.923V359.524z M189.184,363.184v1.221c0,0.507-0.427,0.922-0.956,0.922       c-0.528,0-0.955-0.415-0.955-0.922v-1.221c0-0.49,0.427-0.91,0.955-0.91C188.757,362.273,189.184,362.693,189.184,363.184z        M189.184,366.84v1.221c0,0.507-0.427,0.926-0.956,0.926c-0.528,0-0.955-0.419-0.955-0.926v-1.221       c0-0.49,0.427-0.904,0.955-0.904C188.757,365.936,189.184,366.35,189.184,366.84z M189.184,370.498v1.218       c0,0.512-0.427,0.928-0.956,0.928c-0.528,0-0.955-0.416-0.955-0.928v-1.218c0-0.487,0.427-0.902,0.955-0.902       C188.757,369.596,189.184,370.011,189.184,370.498z M189.184,374.159v1.218c0,0.508-0.427,0.922-0.956,0.922       c-0.528,0-0.955-0.414-0.955-0.922v-1.218c0-0.488,0.427-0.908,0.955-0.908C188.757,373.251,189.184,373.671,189.184,374.159z        M189.184,377.814v1.218c0,0.511-0.427,0.929-0.956,0.929c-0.528,0-0.955-0.418-0.955-0.929v-1.218       c0-0.487,0.427-0.906,0.955-0.906C188.757,376.908,189.184,377.327,189.184,377.814z" fill="#EA3924"/></g><g><path d="M391.144,254.855c0,4.375-3.657,7.921-8.173,7.921h-10.055v-65.742h10.055       c4.516,0,8.173,3.545,8.173,7.927V254.855z" fill="#DEDEDE"/><path d="M382.971,254.227h-10.055v8.55h10.055c4.516,0,8.173-3.546,8.173-7.923V246.3       C391.144,250.681,387.486,254.227,382.971,254.227z" opacity="0.1"/><path d="M382.971,205.588h-10.055v-8.554h10.055c4.516,0,8.173,3.545,8.173,7.927v8.553       C391.144,209.134,387.486,205.588,382.971,205.588z" fill="#FFFFFF" opacity="0.8"/></g><g><g><rect fill="#DBEEFF" height="21.138" width="60.341" x="129.659" y="273.451"/><polygon opacity="0.2" points="190,294.589 175.229,281.528 129.659,273.451 190,273.451       "/></g><g><rect fill="#DBEEFF" height="13.41" width="40.228" x="139.716" y="294.593"/><rect height="13.41" opacity="0.2" width="10.895" x="169.049" y="294.593"/></g><path d="M168.001,183.216h-21.37v-6.024c0-1.811,1.512-3.279,3.377-3.279h14.616       c1.864,0,3.377,1.469,3.377,3.279V183.216z" fill="#D3D3C0"/><g><path d="M272.657,273.451h-141.74c-4.515,0-8.174-3.552-8.174-7.927V191.14c0-4.378,3.659-7.924,8.174-7.924        h141.74V273.451z" fill="#DBEEFF"/><rect height="90.235" opacity="0.2" width="24.2" x="248.457" y="183.216"/><path d="M192.2,245.301c-1.388,0-2.514-1.088-2.514-2.436v-28.861c0-1.351,1.126-2.438,2.514-2.438        s2.514,1.087,2.514,2.438v28.861C194.714,244.213,193.588,245.301,192.2,245.301z" fill="#2C2C2C"/><path d="M213.257,245.301c-1.386,0-2.514-1.088-2.514-2.436v-28.861c0-1.351,1.128-2.438,2.514-2.438        c1.389,0,2.517,1.087,2.517,2.438v28.861C215.773,244.213,214.646,245.301,213.257,245.301z" fill="#2C2C2C"/><path d="M234.314,245.301c-1.387,0-2.515-1.088-2.515-2.436v-28.658c0-1.345,1.128-2.437,2.515-2.437        s2.515,1.092,2.515,2.437v28.658C236.829,244.213,235.701,245.301,234.314,245.301z" fill="#2C2C2C"/><g><path d="M157.315,237.126c-5.257,0-9.603-3.686-10.497-8.534c-0.107,0.591-0.188,1.2-0.188,1.827         c0,5.726,4.783,10.365,10.685,10.365c5.9,0,10.686-4.64,10.686-10.365c0-0.627-0.08-1.236-0.19-1.827         C166.918,233.44,162.571,237.126,157.315,237.126z" opacity="0.7"/><ellipse cx="157.316" cy="228.332" fill="#BFD0E0" rx="10.685" ry="10.364"/></g></g><g><path d="M164.23,308.012v27.434c0,2.027-1.483,6.513-3.447,7.588c-0.248,0.145-0.552,0.221-0.829,0.221        c-2.514,0-4.524-5.612-4.524-8.023v-27.219H164.23z" fill="#FFFFFF"/><path d="M164.23,308.012v27.434c0,2.027-1.483,6.513-3.447,7.588c-0.072-0.659-0.124-1.248-0.124-1.731v-33.29        H164.23z" opacity="0.2"/><path d="M161.479,333.813c0,1.938-0.756,3.509-1.688,3.509c-0.935,0-1.69-1.57-1.69-3.509c0-1.935,0.756-3.505,1.69-3.505        C160.724,330.308,161.479,331.878,161.479,333.813z"/><path d="M155.43,319.161h-5.251c-3.468,0-5.261-2.177-5.261-4.962c0-1.328,0.46-2.564,1.291-3.472        c0.922-1.008,2.265-1.539,3.878-1.539h13.906c0.675,0,1.223-0.529,1.223-1.186c0-0.655-0.548-1.183-1.223-1.183h-13.906        c-2.335,0-4.308,0.802-5.706,2.329c-1.231,1.345-1.908,3.14-1.908,5.05c0,3.671,2.617,7.391,7.614,7.391h5.343V319.161z" fill="#EA3924"/><path d="M164.15,319.17v2.427c3.37,0.067,5.104,2.229,5.104,4.949c0,1.334-0.457,2.569-1.291,3.473        c-0.92,1.009-2.265,1.542-3.876,1.542h-4.22c-0.675,0-1.222,0.529-1.222,1.187c0,0.654,0.547,1.184,1.222,1.184h4.22        c2.333,0,4.306-0.81,5.704-2.333c1.231-1.345,1.908-3.133,1.908-5.052C171.7,322.895,169.103,319.204,164.15,319.17z" fill="#EA3924"/></g></g><g><path d="M372.916,354.544H261.657V191.14c0-4.378,3.661-7.924,8.173-7.924h94.913       c4.512,0,8.173,3.546,8.173,7.924V354.544z" fill="#DBEEFF"/><path d="M364.743,183.216H269.83c-4.512,0-8.173,3.546-8.173,7.924v7.215h86.479       c4.517,0,8.173,3.551,8.173,7.927v148.263h16.607V191.14C372.916,186.762,369.255,183.216,364.743,183.216z" opacity="0.1"/><g><path d="M342.743,234.43c0,13.635-11.399,24.694-25.455,24.694c-14.059,0-25.459-11.06-25.459-24.694        c0-13.638,11.4-24.695,25.459-24.695C331.344,209.734,342.743,220.792,342.743,234.43z" fill="#BFD0E0"/><path d="M321.225,215.652c6.399,2.058,11.576,6.261,13.896,12.643c1.913,5.264,1.384,11.942-1.972,16.584        c-8.13,11.246-24.294,10.949-31.994-0.52c4,5.14,9.994,8.376,16.724,7.591c5.914-0.688,10.974-4.233,13.543-9.49        c2.97-6.076,1.285-13.671-3.738-18.165c-2.417-2.162-4.929-2.77-7.851-3.851C316.55,219.64,318.02,214.601,321.225,215.652z" fill="#BD2508"/><path d="M317.288,259.124c-13.423,0-24.397-10.087-25.364-22.867c-0.047,0.606-0.095,1.213-0.095,1.83        c0,13.64,11.4,24.689,25.459,24.689c14.056,0,25.455-11.05,25.455-24.689c0-0.617-0.047-1.224-0.094-1.83        C341.683,249.037,330.708,259.124,317.288,259.124z" opacity="0.6"/></g></g><g><rect fill="#FFFFFF" height="7.063" width="6.441" x="314.307" y="126"/><g><g><rect fill="#EA3924" height="32.699" width="33.683" x="300.686" y="141.751"/><rect height="32.585" opacity="0.1" width="11.421" x="322.947" y="141.751"/></g><path d="M334.364,153.827h-0.004l-33.684,0.153c-0.193,0-132.683,24.592-132.683,24.592l-21.373,0.143        c-0.7,0.004-1.263,0.554-1.259,1.236c0.003,0.673,0.571,1.22,1.269,1.22h0.006l21.603-0.163l132.446-24.487l33.683-0.153        c0.722-0.005,1.307-0.575,1.303-1.277C335.671,154.392,335.082,153.827,334.364,153.827z" fill="#F3735C"/><g><path d="M337.037,183.216h-39.024c-2.011,0-3.368-0.931-4.095-2.175c-0.228-0.341-0.378-0.705-0.481-1.094         c-0.778-2.688,0.756-6.027,4.576-6.027h39.024c2.384,0,3.871,1.291,4.474,2.927v0.025c0.124,0.341,0.201,0.68,0.253,1.048         C342.116,180.435,340.53,183.216,337.037,183.216z" fill="#2C2C2C"/></g><g><path d="M341.377,139.75c-0.177,0.393-0.43,0.782-0.73,1.12c-0.777,0.881-1.985,1.49-3.618,1.49h-39.023         c-0.805,0-1.509-0.143-2.089-0.389c-2.011-0.854-2.888-2.928-2.638-4.879c0.024-0.364,0.124-0.732,0.249-1.096         c0.605-1.636,2.088-2.926,4.478-2.926h39.023c1.002,0,1.835,0.217,2.514,0.611c0.529,0.288,0.929,0.653,1.281,1.07         C341.927,136.165,342.103,138.143,341.377,139.75z" fill="#2C2C2C"/></g></g></g></g></g></g></svg>